<svg xmlns="http://www.w3.org/2000/svg" xmlns:xlink="http://www.w3.org/1999/xlink" viewBox="0 0 107.73 84.42"><defs><style>.cls-1{fill:none;}.cls-2{isolation:isolate;}.cls-3{opacity:0.5;}.cls-4{clip-path:url(#clip-path);}.cls-5{opacity:0.6;}.cls-5,.cls-7{mix-blend-mode:multiply;}.cls-6{clip-path:url(#clip-path-4);}.cls-7{opacity:0.62;}.cls-8{clip-path:url(#clip-path-6);}.cls-9{clip-path:url(#clip-path-8);}.cls-10{clip-path:url(#clip-path-10);}.cls-11{clip-path:url(#clip-path-11);}.cls-12{clip-path:url(#clip-path-12);}.cls-13{clip-path:url(#clip-path-14);}.cls-14{clip-path:url(#clip-path-15);}.cls-15{fill:#e41e1a;}.cls-16{fill:#fff;}.cls-17{fill:#fafafa;}.cls-18{fill:#e52622;}.cls-19{opacity:0.8;mix-blend-mode:screen;}</style><clipPath id="clip-path" transform="translate(4 -8)"><rect class="cls-1" x="-4" y="8" width="107.73" height="84.42"/></clipPath><clipPath id="clip-path-4" transform="translate(4 -8)"><rect class="cls-1" x="6.56" y="43.82" width="86.98" height="17.19"/></clipPath><clipPath id="clip-path-6" transform="translate(4 -8)"><rect class="cls-1" x="28.22" y="62.53" width="42.31" height="7.49"/></clipPath><clipPath id="clip-path-8" transform="translate(4 -8)"><rect class="cls-1" x="31.97" y="15.21" width="34.82" height="24.65"/></clipPath><clipPath id="clip-path-10" transform="translate(4 -8)"><rect class="cls-1" x="47.79" y="64.47" width="32.03" height="23.67"/></clipPath><clipPath id="clip-path-11" transform="translate(4 -8)"><rect class="cls-1" x="47.79" y="64.47" width="32.03" height="23.67"/></clipPath><clipPath id="clip-path-12" transform="translate(4 -8)"><rect class="cls-1" x="20.35" y="64.7" width="32.03" height="23.44"/></clipPath><clipPath id="clip-path-14" transform="translate(4 -8)"><rect class="cls-1" x="1.36" y="37.34" width="97.99" height="26.46"/></clipPath><clipPath id="clip-path-15" transform="translate(4 -8)"><rect class="cls-1" x="1.36" y="37.34" width="97.99" height="26.46"/></clipPath></defs><g class="cls-2"><g class="cls-4"><g class="cls-4"><g class="cls-4"><g class="cls-5"><g class="cls-6"><g class="cls-6"><image width="1154" height="228" transform="translate(10.56 35.82) scale(0.08)" xlink:href="Sin%20t%C3%ADtulo-21.png"/></g></g></g><g class="cls-7"><g class="cls-8"><g class="cls-8"><image width="260" height="46" transform="translate(32.22 54.53) scale(0.16)" xlink:href="Sin%20t%C3%ADtulo-22.png"/></g></g></g><g class="cls-7"><g class="cls-9"><g class="cls-9"><image width="462" height="327" transform="translate(35.97 7.21) scale(0.08)" xlink:href="Sin%20t%C3%ADtulo-23.png"/></g></g></g><g class="cls-5"><g class="cls-10"><g class="cls-11"><image width="425" height="314" transform="translate(51.79 56.47) scale(0.08)" xlink:href="Sin%20t%C3%ADtulo-24.png"/></g></g></g><g class="cls-5"><g class="cls-12"><g class="cls-12"><image width="425" height="311" transform="translate(24.35 56.7) scale(0.08)" xlink:href="Sin%20t%C3%ADtulo-25.png"/></g></g></g><g class="cls-5"><g class="cls-13"><g class="cls-14"><image width="1300" height="351" transform="translate(5.36 29.34) scale(0.08)" xlink:href="Sin%20t%C3%ADtulo-26.png"/></g></g></g><path class="cls-15" d="M56.43,17.47c.33,1.12.65,2.24,1,3.37a5.63,5.63,0,0,1,.08.61h.32c-.42-1.42-.82-2.8-1.23-4.18a1.12,1.12,0,0,0-.16-.22l-.08,0c0,.13.07.26.1.38" transform="translate(4 -8)"/><path class="cls-15" d="M38.06,65.73v-.08a.19.19,0,0,1,0-.08s0,0,0-.08,0,0,0-.08,0,0,0-.08a1027571250992.31,1027571250992.31,0,0,0,0-.16.64.64,0,0,1,0-.07h0l0-.08a.59.59,0,0,0,0-.08l0-.08a.25.25,0,0,1,0-.07.56.56,0,0,0-.05-.08s0,0,0,0,0,0,0,0l0,0,0,0,0,0h0l0,0,0,0,0,0,0,0,0,0,0,0,0,0,0,0,0,0-.06,0,0,0h0l-.13,0-.13,0-.13,0-.13,0h-.14l-.18,0-.11,0-.08,0-.06,0h0l-.06,0-.05,0,0,0,0,0,0,0,0,0,0,0s0,0,0,0l0,0,0,0,0,0h0l0,0,0,0,0,0,0,0a.05.05,0,0,0,0,0,.22.22,0,0,0,0,.08.25.25,0,0,0,0,.07l0,.08,0,.08,0,.08h0a.14.14,0,0,1,0,.07s0,.06,0,.08,0,.06,0,.08,0,.06,0,.08,0,.06,0,.08a.19.19,0,0,1,0,.08v.16a.13.13,0,0,0,0,.06v0a.22.22,0,0,0,0,.08V66s0,0,0,.08,0,0,0,.08a.24.24,0,0,0,0,.08v.08s0,0,0,.08l0,.08v0l0,0,0,0,0,.05v0h0l0,0,0,.05,0,0,0,0,0,0,0,0s0,0,0,0h0l0,0,0,0,.05,0,0,0,.06.05,0,0,0,0,.07,0,.09.05.11,0,0,0,.13,0a1,1,0,0,0,.25,0l.25,0,.15,0,.11,0h0l0,0,.08,0,.06,0,.06-.05,0,0,.05,0,0,0,0,0h0l0,0,0,0,0,0,0,0,0,0a.08.08,0,0,0,0-.05l0,0s0,0,0,0l0-.05s0,0,0,0,0,0,0,0v0s0,0,0-.08a.24.24,0,0,0,0-.08s0-.05,0-.08,0,0,0-.08a.22.22,0,0,0,0-.08,960325831876.08,960325831876.08,0,0,1,0-.16v-.16" transform="translate(4 -8)"/><path class="cls-15" d="M78.46,46.41a3.57,3.57,0,0,0-2.55,1,3.39,3.39,0,0,0,0,4.86,3.77,3.77,0,0,0,5.09,0,3.37,3.37,0,0,0,0-4.85,3.55,3.55,0,0,0-2.55-1" transform="translate(4 -8)"/><polygon class="cls-15" points="70.52 57.91 71.39 57.91 71.39 57.91 71.36 57.83 71.33 57.75 71.3 57.67 71.27 57.6 71.25 57.52 71.22 57.44 71.19 57.37 71.16 57.29 71.13 57.21 71.1 57.13 71.08 57.05 71.05 56.98 71.02 56.9 70.99 56.82 70.96 56.75 70.95 56.71 70.94 56.75 70.91 56.82 70.88 56.9 70.86 56.98 70.83 57.05 70.8 57.13 70.77 57.21 70.74 57.29 70.72 57.37 70.69 57.44 70.66 57.52 70.63 57.6 70.6 57.67 70.58 57.75 70.55 57.83 70.52 57.91 70.52 57.91"/><path class="cls-15" d="M34.83,25c.13-.19.24-.39.4-.65a3.1,3.1,0,0,0-1.57,1.13l1-.34a.29.29,0,0,0,.15-.14" transform="translate(4 -8)"/><path class="cls-15" d="M58.66,66.57s0,0,0,0l0,0h0l0,0,0-.08-.05-.07,0,0-.06-.06-.12-.08h0a.54.54,0,0,0-.25-.06h-.65v.07h0v.07h0v.07h0v.07h0v.08h0v0h0v0h0v.08h0v0h0v0h0v.08h0v0h0v0h0v.13h0v0h0v.13h0v0h0v.13h0v0H58a.45.45,0,0,0,.2,0l0,0,.05,0a.18.18,0,0,0,.07,0l.06,0,0,0,0,0,0,0,0,0,0,0s0,0,0,0v0l0,0a.43.43,0,0,0,0,0s0,0,0,0a.43.43,0,0,1,0,0v-.1h0v-.09s0,0,0,0a.09.09,0,0,0,0-.05" transform="translate(4 -8)"/><path class="cls-15" d="M40.47,21l.11.07c.11-.11.31-.21.33-.34.13-.77.22-1.55.32-2.32l-.08,0c-.23.87-.45,1.74-.68,2.62" transform="translate(4 -8)"/><path class="cls-15" d="M44.87,65.81v.08a.22.22,0,0,0,0,.08v.08a.22.22,0,0,1,0,.08s0,.05,0,.08a.09.09,0,0,0,0,.05v0a1027571250992.11,1027571250992.11,0,0,1,0,.16l0,0v0l0,0,0,.05v0h0l0,0,0,.05,0,0,0,0,0,0,0,0,0,0h0l0,0,0,0,.05,0,0,0,.06.05,0,0,0,0,.08,0,.09.05.11,0,0,0,.12,0a1.07,1.07,0,0,0,.25,0,1,1,0,0,0,.25,0l.16,0,.1,0h0l.06,0,.07,0,.07,0,.06-.05,0,0,.05,0a.1.1,0,0,1,0,0l0,0h0s0,0,0,0l0,0,0,0s0,0,0,0l0,0,0-.05s0,0,0,0l0,0,0-.05a.08.08,0,0,1,0,0,.43.43,0,0,1,0,0v0a.24.24,0,0,0,0-.08l0-.08s0-.05,0-.08,0,0,0-.08,0,0,0-.08,0,0,0-.08v-.18s0,0,0-.06v-.08a5761954991220.13,5761954991220.13,0,0,0,0-.16.25.25,0,0,0,0-.08s0,0,0-.08,0,0,0-.08a.19.19,0,0,1,0-.08l0-.07h0l0-.08,0-.08a.59.59,0,0,1,0-.08l0-.07a.22.22,0,0,0,0-.08.05.05,0,0,0,0,0l0,0,0,0,0,0,0,0h0l0,0,0,0,0,0a.08.08,0,0,0,0,0l0,0s0,0,0,0l0,0,0,0,0,0-.05,0-.06,0h0l-.12,0-.13,0-.13,0-.13,0h-.15l-.18,0-.1,0-.08,0-.06,0h0l0,0-.06,0,0,0,0,0-.05,0,0,0,0,0,0,0,0,0,0,0,0,0h0l0,0,0,0,0,0s0,0,0,0,0,0,0,0a.56.56,0,0,0-.05.08.25.25,0,0,1,0,.07.2.2,0,0,1,0,.08L45,65l0,.08h0a.25.25,0,0,0,0,.07l0,.08s0,.06,0,.08a.31.31,0,0,0,0,.08s0,.06,0,.08a.25.25,0,0,0,0,.08s0,.06,0,.08v.16" transform="translate(4 -8)"/><path class="cls-15" d="M39.78,20.88l1-3.52a2.86,2.86,0,0,0,.07-.28l-.14,0c-.5,1.44-.87,2.92-1.32,4.41h.32a3.41,3.41,0,0,1,.07-.58" transform="translate(4 -8)"/><path class="cls-15" d="M54,18.3c-1.38-.07-2.76-.11-4.14-.17l0,.1c-.14.08-.27.22-.41.23-.6,0-1.19,0-1.79,0-.09,0-.24-.06-.26-.12s-.19-.19-.34-.19c-.92,0-1.83.05-2.74.09-.46,0-.92.05-1.37.09a.47.47,0,0,0-.44.4c-.14.69-.28,1.37-.42,2.08H55.05c-.12-.65-.22-1.27-.35-1.88s-.22-.61-.7-.63" transform="translate(4 -8)"/><path class="cls-15" d="M56.23,20.59c0,.29.16.41.49.4-.23-.91-.47-1.78-.7-2.66,0,.76.13,1.51.21,2.26" transform="translate(4 -8)"/><path class="cls-15" d="M56.4,16.83a.53.53,0,0,0-.31-.21,14.91,14.91,0,0,0-1.63-.25,91.27,91.27,0,0,0-11-.06c-.72,0-1.44.15-2.16.25a3.13,3.13,0,0,0-.57.18l0,.15c5.2-.19,10.39-.19,15.6-.06" transform="translate(4 -8)"/><path class="cls-15" d="M34.37,31.29l10.08.31c4.55.14,9.09,0,13.63-.15l4.68-.15c.53,0,.74-.16.79-.68.13-1.28.24-2.57.31-3.85a1.23,1.23,0,0,0-1-1.29,3.74,3.74,0,0,0-1-.11H36.17a14,14,0,0,0-1.59.07,1.3,1.3,0,0,0-1.25,1.39,8.19,8.19,0,0,0,0,1c.08.9.15,1.8.25,2.7.07.59.26.77.76.78m.71-5q3-.06,6.06-.07c2.49,0,5,0,7.47,0v0h12.6c.36,0,.71,0,1.06,0,.64.06.93.36.91,1,0,.9-.1,1.8-.18,2.7,0,.43-.18.57-.61.59-.94.05-1.87.08-2.81.1-4.24.06-8.48.17-12.73.16-3.81,0-7.63-.14-11.45-.22-1.14,0-1.21-.08-1.28-1.23,0-.66-.1-1.31-.12-2s.28-1.12,1.08-1.13" transform="translate(4 -8)"/><path class="cls-15" d="M62.56,25.16l1,.34A2.56,2.56,0,0,0,62,24.45c.11.17.21.36.33.53a.56.56,0,0,0,.23.18" transform="translate(4 -8)"/><path class="cls-15" d="M58.05,21.65c.06.21.13.39.4.37a.51.51,0,0,0,.41-.54.55.55,0,0,0,0-.17.57.57,0,0,0-.69-.35c-.35.11-.18.34-.13.54s0,.1,0,.15" transform="translate(4 -8)"/><path class="cls-15" d="M38.73,22c.26,0,.34-.15.4-.36s.06-.18.08-.27c.09-.32,0-.45-.34-.45a.54.54,0,0,0-.54.55.49.49,0,0,0,.4.53" transform="translate(4 -8)"/><path class="cls-15" d="M43.15,34.91h2a3.18,3.18,0,0,1,.51.13,4.47,4.47,0,0,0,1,.25c1.32,0,2.64,0,4,0a1.7,1.7,0,0,0,1-.25,1,1,0,0,1,.43-.11l2.54-.11,4-.15,3.38-.12a1.49,1.49,0,0,0,1.36-.74c.26-.46.52-.93.74-1.41a1.54,1.54,0,0,0,.11-.71c0-.23-.16-.38-.44-.26a1.57,1.57,0,0,1-.46.12c-.81.06-1.61.11-2.42.14-2.57.08-5.14.2-7.72.22-3.62,0-7.25,0-10.87-.06-2.47,0-4.94-.12-7.4-.19a7.16,7.16,0,0,1-1.23-.19c-.48-.11-.66,0-.58.53a1.49,1.49,0,0,0,.15.45c.17.35.37.69.53,1a1.7,1.7,0,0,0,1.69,1.06c2.59.08,5.17.18,7.75.28v.06M35,33a4.42,4.42,0,0,1-1.12-.25c2.28.15,4.56.1,6.83.13,2.1,0,4.19,0,6.29.07,1.56,0,3.12,0,4.69,0,1.2,0,2.4,0,3.6,0L62,32.78c.43,0,.86-.08,1.29-.12l0,.08a8.52,8.52,0,0,1-1.1.21q-1.77.09-3.54.12c-2.21,0-4.42.06-6.63.06-3.2,0-6.4,0-9.6,0C40,33.08,37.48,33,35,33" transform="translate(4 -8)"/><rect class="cls-15" x="45.66" y="20.19" width="13.85" height="0.75"/><path class="cls-15" d="M58.92,28.18H58.2v.74c.83,0,.8.15.72-.74" transform="translate(4 -8)"/><path class="cls-15" d="M62.17,25.12c-.49-.65-.92-1.24-1.37-1.82a.79.79,0,0,0-.3-.17c-.74-.32-1.49-.63-2.22-1a.76.76,0,0,1-.33-.31.31.31,0,0,0-.33-.21l-2.68-.14a137.44,137.44,0,0,0-15.19.13c-.27,0-.49,0-.57.34,0,.08-.15.15-.24.19-.57.25-1.13.51-1.71.72A2.13,2.13,0,0,0,35.91,24a1.93,1.93,0,0,1-.27.31l-.64.82ZM42.59,23l5.51-.11c0-.3,0-.59.08-.88s.1-.44.4-.44.39.19.42.43,0,.57.08.88c3.66.14,7.33,0,11,.49L48.9,23.1c0-.32,0-.62,0-.93s0-.4-.26-.4-.23.22-.25.39-.05.61-.07.94l-11.17.24A36,36,0,0,1,42.59,23" transform="translate(4 -8)"/><rect class="cls-15" x="59.7" y="20.19" width="2.28" height="0.73"/><path class="cls-15" d="M55.71,17.06c-4.6-.14-9.21-.16-13.81,0-.82,0-.82,0-1,.8q-.45,1.53-.87,3.06c-.1.34,0,.49.37.49l.45,0,7.78-.27v.05c.26,0,.53,0,.8,0l7.3.23c.52,0,.62-.1.48-.59-.32-1.11-.65-2.22-.94-3.34-.08-.31-.21-.39-.52-.4m.93,4.16-8-.29-7.92.28h-.28c-.3,0-.35-.11-.28-.36.32-1.09.64-2.19,1-3.28.07-.26.23-.32.47-.32,3.7,0,7.4-.05,11.11-.06,1,0,1.91.05,2.87.06a.43.43,0,0,1,.47.36c.3,1.07.62,2.13.92,3.19.11.39.08.42-.34.41" transform="translate(4 -8)"/><path class="cls-15" d="M38.9,28.91v-.73h-.67c-.09.9-.1.79.67.73" transform="translate(4 -8)"/><path class="cls-15" d="M36.26,53.21a3.56,3.56,0,0,0,2.54-1,3.37,3.37,0,0,0,0-4.84,3.57,3.57,0,0,0-2.55-1h-1.2V54a1.18,1.18,0,0,1,.27-.4,1.29,1.29,0,0,1,.93-.35" transform="translate(4 -8)"/><path class="cls-15" d="M35.06,30.38c.81,0,1.61,0,2.42,0a.54.54,0,0,0,.58-.62c0-.33.1-.41.42-.41,3.37,0,6.74,0,10.12,0v.06c1.1,0,2.21,0,3.32,0,2.29,0,4.57,0,6.86-.06.17,0,.34,0,.32.25,0,.58.17.77.75.77s1.36,0,2,0,.87-.21.94-.84.11-1.47.13-2.2c0-.53-.22-.76-.75-.77-.75,0-1.51,0-2.27,0a.65.65,0,0,0-.73.73c0,.34-.12.43-.44.43q-10.16,0-20.31,0c-.34,0-.48-.07-.49-.45s-.24-.7-.62-.7c-.83,0-1.66,0-2.49,0a.58.58,0,0,0-.62.63q0,1.26.15,2.52a.67.67,0,0,0,.67.65m26-3.17a1.36,1.36,0,1,1-1.37,1.35A1.36,1.36,0,0,1,61,27.21M38.31,28H58.67c.48,0,.52,0,.52.53,0,.68,0,.68-.68.68H38.6c-.56,0-.59,0-.59-.6v-.29c0-.21.08-.32.3-.32m-2.17-.75a1.36,1.36,0,1,1-1.34,1.37,1.35,1.35,0,0,1,1.34-1.37" transform="translate(4 -8)"/><rect class="cls-15" x="43.15" y="20.18" width="2.29" height="0.74"/><path class="cls-15" d="M36.14,29.67a1.11,1.11,0,1,0-1.09-1.1,1.1,1.1,0,0,0,1.09,1.1" transform="translate(4 -8)"/><path class="cls-15" d="M57.81,65.18a.41.41,0,0,0,.19,0l0,0,.1-.08,0,0,0-.06a.25.25,0,0,0,0-.07s0,0,0,0,0,0,0,0,0,0,0-.08v-.08h0v-.2h0v-.06l0,0,0,0,0,0v0l0,0,0,0,0,0a.09.09,0,0,0-.05,0h0l-.08,0h-.53v0h0v0h0v0h0v0h0v0h0v0h0v0h0v0h0v0h0v0h0v0h0v0h0v.08h0v.08h0v.07h0V65h0V65h0v.07h0v.06Z" transform="translate(4 -8)"/><path class="cls-15" d="M61,29.65a1.1,1.1,0,1,0-1.11-1.12A1.1,1.1,0,0,0,61,29.65" transform="translate(4 -8)"/><path class="cls-16" d="M13.16,46.41a1.29,1.29,0,0,0,.93-.35,1.28,1.28,0,0,0,0-1.8,1.33,1.33,0,0,0-.93-.34,6.11,6.11,0,0,0-4.37,1.72,5.8,5.8,0,0,0,0,8.38,6.14,6.14,0,0,0,4.37,1.71,1.29,1.29,0,0,0,.93-.34,1.16,1.16,0,0,0,.37-.9,1.19,1.19,0,0,0-.37-.9,1.29,1.29,0,0,0-.93-.35,3.52,3.52,0,0,1-2.54-1,3.35,3.35,0,0,1,0-4.85,3.52,3.52,0,0,1,2.54-1" transform="translate(4 -8)"/><path class="cls-16" d="M23,50.76a4.16,4.16,0,0,0-.38-5.61,4.47,4.47,0,0,0-3.17-1.23,4.42,4.42,0,0,0-3.15,1.23,4,4,0,0,0-1.28,3v6.28a1.2,1.2,0,0,0,.36.89,1.41,1.41,0,0,0,1.85,0,1.16,1.16,0,0,0,.37-.9V48.17a1.64,1.64,0,0,1,.54-1.24,1.79,1.79,0,0,1,1.31-.52,1.82,1.82,0,0,1,1.32.52,1.61,1.61,0,0,1,.55,1.24,1.65,1.65,0,0,1-.55,1.26,1.83,1.83,0,0,1-1.32.52,1.26,1.26,0,0,0-.9.37,1.18,1.18,0,0,0-.38.87v.88a3.45,3.45,0,0,0,1.08,2.59,3.72,3.72,0,0,0,2.68,1,1.37,1.37,0,0,0,.94-.34,1.29,1.29,0,0,0,0-1.81,1.36,1.36,0,0,0-1-.34,1.13,1.13,0,0,1-.8-.32,1,1,0,0,1-.34-.63A4.49,4.49,0,0,0,23,50.76" transform="translate(4 -8)"/><path class="cls-16" d="M28.57,47.05a3.66,3.66,0,0,1,2.09-.64,1.29,1.29,0,0,0,.93-.35,1.28,1.28,0,0,0,0-1.8,1.33,1.33,0,0,0-.93-.34,6.11,6.11,0,0,0-4.37,1.72,5.8,5.8,0,0,0,0,8.38,6.14,6.14,0,0,0,4.37,1.71,1.29,1.29,0,0,0,.93-.34,1.16,1.16,0,0,0,.37-.9,1.19,1.19,0,0,0-.37-.9,1.29,1.29,0,0,0-.93-.35,3.61,3.61,0,0,1-2.14-.68A3.4,3.4,0,0,1,27.3,51h3.36a1.29,1.29,0,0,0,.93-.35,1.19,1.19,0,0,0,.37-.9,1.16,1.16,0,0,0-.37-.9,1.29,1.29,0,0,0-.93-.34h-3.3a3.32,3.32,0,0,1,1.21-1.47" transform="translate(4 -8)"/><path class="cls-16" d="M40.64,45.62a6.18,6.18,0,0,0-4.38-1.7h-2.5a1.28,1.28,0,0,0-.9.37,1.17,1.17,0,0,0-.39.87v9.3a1.23,1.23,0,0,0,.36.9,1.44,1.44,0,0,0,1.86,0,1.17,1.17,0,0,0,.33-.54,1.13,1.13,0,0,0,.31.54,1.33,1.33,0,0,0,.93.34A6.14,6.14,0,0,0,40.64,54a5.82,5.82,0,0,0,0-8.38m-5.58.79h1.2a3.57,3.57,0,0,1,2.55,1,3.37,3.37,0,0,1,0,4.84,3.56,3.56,0,0,1-2.54,1,1.29,1.29,0,0,0-.93.35,1.18,1.18,0,0,0-.27.4Z" transform="translate(4 -8)"/><path class="cls-16" d="M44.3,43.92a1.28,1.28,0,0,0-.92.35,1.18,1.18,0,0,0-.36.89v9.3a1.19,1.19,0,0,0,.36.9,1.32,1.32,0,0,0,.92.34,1.37,1.37,0,0,0,.94-.34,1.2,1.2,0,0,0,.37-.9v-9.3a1.18,1.18,0,0,0-.37-.89,1.33,1.33,0,0,0-.94-.35" transform="translate(4 -8)"/><path class="cls-16" d="M57.62,58a1.25,1.25,0,0,0-.35-.9,1.29,1.29,0,0,0-.93-.35h-.09a1.13,1.13,0,0,1-.84-.33,1.08,1.08,0,0,1-.33-.8V48.18a4,4,0,0,0-1.29-3,4.47,4.47,0,0,0-3.17-1.23,4.42,4.42,0,0,0-3.15,1.23,4,4,0,0,0-1.28,3v6.28a1.19,1.19,0,0,0,.36.9,1.29,1.29,0,0,0,.92.34,1.33,1.33,0,0,0,.93-.34,1.16,1.16,0,0,0,.37-.9V48.17a1.64,1.64,0,0,1,.54-1.24,1.79,1.79,0,0,1,1.31-.52,1.82,1.82,0,0,1,1.32.52,1.63,1.63,0,0,1,.55,1.25,1.68,1.68,0,0,1-.55,1.26,1.83,1.83,0,0,1-1.32.52,1.3,1.3,0,0,0-.92.34,1.19,1.19,0,0,0-.36.9,1.22,1.22,0,0,0,.36.9,1.25,1.25,0,0,0,.92.35,4.61,4.61,0,0,0,1.87-.39V55.6a3.41,3.41,0,0,0,1.09,2.57,3.53,3.53,0,0,0,1.86,1h1.37A1.18,1.18,0,0,0,57.62,58" transform="translate(4 -8)"/><path class="cls-16" d="M61.92,43.92a1.29,1.29,0,0,0-.93.36,1.19,1.19,0,0,0-.37.89v6.91a1.05,1.05,0,0,1-.34.8,1.15,1.15,0,0,1-.84.33,1.18,1.18,0,0,1-.85-.33,1.08,1.08,0,0,1-.35-.81V45.16a1.14,1.14,0,0,0-.37-.89,1.29,1.29,0,0,0-.93-.35,1.25,1.25,0,0,0-.92.35,1.18,1.18,0,0,0-.36.89v6.91a3.42,3.42,0,0,0,1.09,2.59,4,4,0,0,0,5.37,0,3.45,3.45,0,0,0,1.09-2.57V45.17a1.22,1.22,0,0,0-.36-.89,1.26,1.26,0,0,0-.93-.36" transform="translate(4 -8)"/><path class="cls-16" d="M70.42,43.92h-5.3a1.33,1.33,0,0,0-.93.34,1.28,1.28,0,0,0,0,1.8,1.29,1.29,0,0,0,.93.35h1.31v8.05a1.2,1.2,0,0,0,.37.9,1.37,1.37,0,0,0,.94.34,1.32,1.32,0,0,0,.92-.34,1.19,1.19,0,0,0,.36-.9V46.41h1.4a1.31,1.31,0,0,0,.93-.35,1.16,1.16,0,0,0,.37-.9,1.18,1.18,0,0,0-.37-.9,1.35,1.35,0,0,0-.93-.34" transform="translate(4 -8)"/><path class="cls-16" d="M78.46,43.92a6.11,6.11,0,0,0-4.37,1.72,5.8,5.8,0,0,0,0,8.38,6.44,6.44,0,0,0,8.74,0,5.78,5.78,0,0,0,0-8.38,6.09,6.09,0,0,0-4.37-1.72M81,52.25a3.77,3.77,0,0,1-5.09,0,3.39,3.39,0,0,1,0-4.86,3.79,3.79,0,0,1,5.1,0,3.37,3.37,0,0,1,0,4.85" transform="translate(4 -8)"/><path class="cls-16" d="M90.77,43.92a3.37,3.37,0,0,0-2.43,1,3.1,3.1,0,0,0-1,2.35v5.18a.74.74,0,0,1-.25.58.84.84,0,0,1-.61.24,1.29,1.29,0,0,0-.93.35,1.29,1.29,0,0,0,0,1.79,1.29,1.29,0,0,0,.93.34,3.45,3.45,0,0,0,2.44-1,3.13,3.13,0,0,0,1-2.35V47.23a.82.82,0,0,1,.25-.59h0a1.05,1.05,0,0,1,.66-.23,1.45,1.45,0,0,0,.9-.37,1.19,1.19,0,0,0,.34-.88,1.14,1.14,0,0,0-.37-.89,1.29,1.29,0,0,0-.93-.35" transform="translate(4 -8)"/><path class="cls-16" d="M32.83,66.84a.43.43,0,0,1,0,0s0,0,0,0h0s0,0,0,0l0,0,0,0,0,0a.1.1,0,0,0-.06,0,0,0,0,0,0,0,0,.23.23,0,0,0-.11,0h-.06a.27.27,0,0,0-.13,0h0l0,0,0,.05,0,0s0,0,0,0h0l0,.05,0,0,0,0,0,0,0,0L32,67l0,0h0l-.05,0,0,0-.06,0-.05.05-.07,0h0l-.07,0-.09.05-.11,0-.06,0-.1,0a1.06,1.06,0,0,1-.5,0l-.12,0,0,0-.11,0-.09-.05-.08,0,0,0,0,0-.06-.05-.06,0,0,0-.05,0,0,0h0l0,0,0,0,0,0,0,0,0,0,0-.05,0,0h0l0,0,0-.05,0,0v0l0,0,0-.08s0-.05,0-.08v0a.09.09,0,0,1,0-.05s0,0,0-.08a1440488747805.52,1440488747805.52,0,0,1,0-.16v-.32a17285864973726.59,17285864973726.59,0,0,0,0-.24s0,0,0-.08a.19.19,0,0,0,0-.08l0-.08a.25.25,0,0,1,0-.07h0l0-.08,0-.08a.59.59,0,0,0,0-.08l0-.07a.56.56,0,0,1,0-.08s0,0,0,0,0,0,0,0l0,0,0,0,0,0h0l0,0,0,0,0,0,0,0,0,0,0,0,0,0,.05,0,0,0,.06,0,.05,0h0l.07,0,.08,0,.1,0,.18,0h.24l.17,0,.06,0,0,0,.08,0,.07,0,.06,0,.05,0,0,0,0,0,0,0,0,0s0,0,0,0l0,0s0,0,0,0l0,0,0,0h0l0,0,0,0,0,0,0,0,0,0,0,0a.56.56,0,0,1,0,.08l0,.07h0a.28.28,0,0,0,.05.08.29.29,0,0,0,.07.08h0a.25.25,0,0,0,.16.06.22.22,0,0,0,.13,0l.05,0,.06-.05v0a.22.22,0,0,0,0-.08l0,0s0,0,0,0a.25.25,0,0,0,0-.08s0,0,0,0h0v-.26h0v0l0,0v0l0,0,0,0,0,0,0,0,0,0,0,0,0,0,0,0,0,0,0,0,0,0,0,0,0,0h0l0,0,0,0,0,0,0,0,0,0,0,0,0,0,0,0,0,0s0,0,0,0l-.05,0,0,0h0l-.06,0-.05,0-.06,0-.06,0-.08,0-.08,0-.08,0a1.89,1.89,0,0,0-.53-.08,1.54,1.54,0,0,0-.56.1h0l-.09,0-.07,0-.07,0-.06,0-.05,0-.05,0-.05,0h0l0,0,0,0,0,0,0,0,0,0,0,0,0,0,0,0,0,0,0,0,0,0,0,0,0,0h0l0,0,0,0,0,0,0,0,0,0,0,0,0,0,0,0,0,0,0,0,0,0,0,0,0,0v0l0,0v0h0v.07l0,0v0l0,0v.07l0,.08a.19.19,0,0,0,0,.07l0,.08A.19.19,0,0,1,29,65a.24.24,0,0,1,0,.08h0s0,.06,0,.08,0,.06,0,.08a.19.19,0,0,1,0,.08s0,.06,0,.08a.19.19,0,0,1,0,.08v.08s0,.06,0,.08V66a.22.22,0,0,1,0,.08,1440488747817.89,1440488747817.89,0,0,1,0,.16.22.22,0,0,0,0,.08s0,0,0,.08,0,0,0,.08v0h0v.1a.07.07,0,0,1,0,.05l0,0v0l0,.05,0,0v0l0,0,0,0s0,0,0,.05l0,0,0,0v0a.17.17,0,0,0,0,0l0,0,0,.05,0,0,0,0,0,.05,0,0,0,0,0,0,0,0,0,0,0,0,0,0,0,0,.05,0,0,0,.05,0,.05,0,.07,0,.05,0h0l.07.05.08,0,.08,0,.1,0,.11,0,.05,0,.1,0,.23,0h.47l.23,0,.06,0,.09,0,.12,0,.1,0,.09,0,.08,0h0l.06,0,.06,0,.06,0,0,0,0,0,.05,0,0,0,0,0h0l0,0,0-.05,0,0,0,0,0,0,0,0,0-.05a.08.08,0,0,0,0,0l0,0,0-.05,0,0h0v-.27s0,0,0,0v0" transform="translate(4 -8)"/><path class="cls-16" d="M38.76,65.73a.22.22,0,0,0,0-.08v-.08a.25.25,0,0,0,0-.08v-.08a.19.19,0,0,1,0-.08s0,0,0-.08,0,0,0-.08,0,0,0-.08h0a.24.24,0,0,0,0-.08,2055142501986.7,2055142501986.7,0,0,0,0-.16s0,0,0-.07l0-.08v-.07l0,0v0l0,0v-.07h0v0l0,0v0l0,0,0,0,0,0,0,0,0,0,0,0,0,0,0,0,0,0,0,0,0,0,0,0,0,0h0l0,0,0,0,0,0,0,0,0,0,0,0,0,0,0,0,0,0,0,0,0,0,0,0,0,0h0l-.05,0,0,0-.06,0-.06,0-.07,0-.07,0-.08,0h0a1.49,1.49,0,0,0-.55-.1l-.56.1h0l-.08,0-.07,0-.07,0-.06,0-.06,0,0,0,0,0h0l0,0-.05,0,0,0,0,0,0,0,0,0,0,0,0,0,0,0,0,0,0,0,0,0,0,0h0l0,0,0,0,0,0,0,0,0,0,0,0,0,0,0,0,0,0,0,0v0l0,0,0,0,0,0v.06h0v0l0,0v0l0,0v.11l0,.08,0,.07a.19.19,0,0,1,0,.08s0,.06,0,.08,0,0,0,.08h0s0,.06,0,.08,0,.06,0,.08a.25.25,0,0,0,0,.08,960325831872.95,960325831872.95,0,0,1,0,.16.19.19,0,0,1,0,.08V66s0,0,0,.08v.08a720244373906.94,720244373906.94,0,0,1,0,.16s0,0,0,.08,0,0,0,.08v0h0l0,0v0a.43.43,0,0,1,0,.05l0,0v0l0,.05v0l0,0,0,0,0,0,0,.05,0,0,0,0v0l0,0s0,0,0,0l0,.05,0,0,0,0,0,.05,0,0,0,0,0,0,0,0,0,0,0,0,0,0,0,0,0,0,.05,0,.06,0,.05,0,.06,0,.06,0h0a.18.18,0,0,0,.07.05l.07,0,.09,0,.1,0,.11,0,0,0,.09,0,.24,0h.45l.23,0,.1,0,.05,0,.11,0,.1,0,.09,0,.07,0a.18.18,0,0,0,.07-.05h0l.06,0,.06,0,0,0,0,0,.05,0,0,0,0,0,0,0,0,0,0,0,0,0,0,0a.1.1,0,0,0,0,0l0,0,0-.05,0,0,0,0,0-.05,0,0s0,0,0,0v0l0,0,0,0s0,0,0-.05l0,0v0l0,0,0,0v-.05l0,0v0l0-.05v-.1h0v0s0,0,0-.08,0-.05,0-.08,0-.05,0-.08,0,0,0-.08a.22.22,0,0,1,0-.08V66a.22.22,0,0,1,0-.08v-.16m-.74.48s0,.05,0,.08a.24.24,0,0,1,0,.08s0,0,0,.08v0s0,0,0,0,0,0,0,0l0,.05s0,0,0,0l0,0,0,.05,0,0,0,0,0,0,0,0,0,0h0l0,0,0,0-.05,0,0,0-.06.05-.06,0-.08,0,0,0h0l-.11,0-.15,0-.25,0a1,1,0,0,1-.25,0l-.13,0,0,0-.11,0-.09-.05-.07,0,0,0,0,0-.06-.05,0,0-.05,0,0,0,0,0h0s0,0,0,0l0,0,0,0,0,0,0,0,0-.05,0,0h0v0l0-.05,0,0,0,0v0l0-.08s0-.05,0-.08v-.08a.24.24,0,0,1,0-.08s0,0,0-.08,0,0,0-.08v-.08a.22.22,0,0,1,0-.08v0a.13.13,0,0,1,0-.06v-.16a.19.19,0,0,0,0-.08s0,0,0-.08,0,0,0-.08,0,0,0-.08,0,0,0-.08a.14.14,0,0,0,0-.07h0l0-.08,0-.08,0-.08a.25.25,0,0,1,0-.07.22.22,0,0,1,0-.08.05.05,0,0,1,0,0l0,0,0,0,0,0,0,0h0l0,0,0,0,0,0s0,0,0,0l0,0,0,0,0,0,0,0,0,0,.05,0,.06,0h0l.06,0,.08,0,.11,0,.18,0h.14l.13,0,.13,0,.13,0,.13,0h0l0,0,.06,0,0,0,0,0,0,0,0,0,0,0,0,0,0,0,0,0,0,0h0l0,0,0,0,0,0s0,0,0,0,0,0,0,0a.56.56,0,0,1,.05.08.25.25,0,0,0,0,.07l0,.08a.59.59,0,0,1,0,.08l0,.08h0a.64.64,0,0,0,0,.07,1027571250992.31,1027571250992.31,0,0,1,0,.16s0,.06,0,.08,0,.06,0,.08,0,.06,0,.08a.19.19,0,0,0,0,.08v.24a960325831876.08,960325831876.08,0,0,0,0,.16.22.22,0,0,1,0,.08s0,.05,0,.08" transform="translate(4 -8)"/><path class="cls-16" d="M43,67.9v0a.07.07,0,0,0,0,0,.09.09,0,0,0,0,0v0s0,0,0,0a.08.08,0,0,1,0,0l0,0v0l0,0-.06,0h0l-.11,0H41.51V63.66h0v-.13a0,0,0,0,0,0,0v-.1l0,0a.05.05,0,0,0,0,0l0,0h0l-.11-.08a.28.28,0,0,0-.13,0l-.12,0-.11.08h0v0l0,0s0,0,0,0l0,0v0a0,0,0,0,1,0,0v.16h0v0h0v0h0v0h0v0h0v0h0v0h0v0h0v0h0v0h0v0h0v0h0v0h0v0h0v0h0v0h0v0h0v0h0v0h0v0h0v0h0v0h0v.1h0v.08h0v.07h0v.07h0V65h0v.08h0v.07h0v.07h0v.07h0v.08h0v.07h0v.07h0v.07h0v.08h0v.08h0v.07h0V66h0V66h0v.08h0v.07h0v.07h0v.08h0v.08h0v0h0v.18h0v0h0v.13h0v0h0v0h0v.13h0v0h0v0h0v.13h0v0h0v.13h0v0h0v0h0v.13h0v0h0v0h0v0h0V68l0,0v0l0,0a.08.08,0,0,0,0,0l0,0v0l0,0,0,.05,0,0,.05,0,.07,0h1.46l.11,0,.06,0,0,0,.06-.05,0,0v0l0,0a.08.08,0,0,0,0,0v0a.09.09,0,0,1,0,0v-.09h0" transform="translate(4 -8)"/><path class="cls-16" d="M48.36,65.73v-.08a.25.25,0,0,0,0-.08v-.08s0,0,0-.08,0,0,0-.08,0,0,0-.08,0,0,0-.08,0,0,0-.08h0a.24.24,0,0,1,0-.08s0-.05,0-.08a.19.19,0,0,1,0-.08l0-.07,0-.08v-.11l0,0v0l0,0v0h0l0,0v0l0,0,0,0,0,0v0l0,0,0,0,0,0,0,0,0,0,0,0,0,0,0,0,0,0,0,0h0l0,0,0,0,0,0,0,0,0,0,0,0,0,0,0,0,0,0,0,0,0,0,0,0,0,0h0l0,0,0,0-.06,0,0,0-.07,0-.07,0-.09,0h0a1.45,1.45,0,0,0-.55-.1l-.56.1h0l-.09,0-.07,0-.07,0-.06,0,0,0-.05,0,0,0h0l0,0,0,0,0,0,0,0,0,0,0,0,0,0,0,0,0,0,0,0,0,0,0,0,0,0h0l0,0,0,0,0,0,0,0,0,0,0,0,0,0,0,0,0,0,0,0,0,0,0,0,0,0v0l0,0v0h0l0,0v0l0,0v0l0,0v.07l0,.08s0,0,0,.07l0,.08a.19.19,0,0,1,0,.08s0,0,0,.08h0s0,.06,0,.08,0,.06,0,.08a.19.19,0,0,1,0,.08s0,.06,0,.08a.19.19,0,0,1,0,.08v.08s0,.06,0,.08v.24a.22.22,0,0,0,0,.08v.08s0,0,0,.08a720244373907,720244373907,0,0,1,0,.16s0,0,0,.08,0,0,0,.08v0h0v.1s0,0,0,.05v0l0,0v.05l0,0,0,0v0l0,0s0,0,0,.05l0,0v0s0,0,0,0l0,0,0,.05,0,0,0,0,0,.05,0,0,0,0,0,0,0,0,0,0,0,0,0,0,0,0,0,0,.05,0,0,0,.05,0,.07,0s0,0,.05,0h0l.07.05.08,0,.08,0,.1,0,.11,0,.05,0,.1,0,.23,0h.46l.23,0,.09,0,0,0,.12,0,.1,0,.08,0,.08,0,.07-.05h0l.06,0,.06,0,.06,0,0,0,.05,0,0,0s0,0,0,0l0,0,0,0,0,0,0,0,0,0,0,0,0,0,0-.05,0,0,0,0,0-.05,0,0,0,0v0l0,0,0-.05,0,0,0,0,0,0v0l0-.05v0l0,0V66.5h0v0s0,0,0-.08,0-.05,0-.08a768260665501.85,768260665501.85,0,0,1,0-.16.22.22,0,0,0,0-.08s0,0,0-.08v-.24m-.74.48s0,.05,0,.08l0,.08a.24.24,0,0,1,0,.08v0a.43.43,0,0,0,0,0,.08.08,0,0,0,0,0l0,.05,0,0s0,0,0,0l0,.05,0,0s0,0,0,0l0,0,0,0s0,0,0,0h0l0,0a.1.1,0,0,0,0,0l-.05,0,0,0-.06.05-.07,0-.07,0-.06,0h0l-.1,0-.16,0a1,1,0,0,1-.25,0,1.07,1.07,0,0,1-.25,0l-.12,0,0,0-.11,0-.09-.05-.08,0,0,0,0,0-.06-.05,0,0-.05,0,0,0,0,0h0l0,0,0,0,0,0,0,0,0,0,0-.05,0,0h0v0l0-.05,0,0v0l0,0a1027571250992.11,1027571250992.11,0,0,0,0-.16v0a.09.09,0,0,1,0-.05s0,0,0-.08a.22.22,0,0,0,0-.08V66a.22.22,0,0,1,0-.08v-.24s0-.05,0-.08a.25.25,0,0,1,0-.08s0,0,0-.08a.31.31,0,0,1,0-.08s0,0,0-.08l0-.08a.25.25,0,0,1,0-.07h0L45,65l0-.08a.2.2,0,0,0,0-.08.25.25,0,0,0,0-.07.56.56,0,0,1,.05-.08s0,0,0,0,0,0,0,0l0,0,0,0,0,0h0l0,0,0,0,0,0,0,0,0,0,0,0,.05,0,0,0,0,0,.05,0,0,0h0l.06,0,.08,0,.1,0,.18,0h.15l.13,0,.13,0,.13,0,.12,0h0l.06,0,.05,0,0,0,0,0,0,0s0,0,0,0l0,0a.08.08,0,0,1,0,0l0,0,0,0,0,0h0l0,0,0,0,0,0,0,0a.05.05,0,0,1,0,0,.22.22,0,0,1,0,.08l0,.07a.59.59,0,0,0,0,.08l0,.08,0,.08h0l0,.07a.19.19,0,0,0,0,.08s0,.06,0,.08,0,.06,0,.08a.25.25,0,0,1,0,.08,5761954991220.13,5761954991220.13,0,0,1,0,.16v.08s0,0,0,.06V66s0,0,0,.08,0,0,0,.08,0,.05,0,.08" transform="translate(4 -8)"/><path class="cls-16" d="M54.37,63.66v-.1a.08.08,0,0,0,0,0v0h0s0,0,0,0l0,0,0,0s0,0,0,0h0l0,0a.18.18,0,0,0-.07,0L54,63.23H54a.39.39,0,0,0-.21.06.18.18,0,0,0-.07,0l0,0,0,0s0,0,0,0v0h0v.09l0,0v.1l0,0v.1l0,0V64l0,0v.1l0,0v.1l0,0v.09l0,0v.09l0,0v.1l0,0v.1l0,.07,0,.08L53,65l0,.08,0,.07,0,.08,0,.08,0,.08,0,.07,0,.08,0,.08,0,.07,0,.08,0,.08,0,.08,0,.07,0,.08,0,.08,0,.08,0,.07,0,.08,0,.08,0,0,0,0,0,0v0l0,.05,0,0,0,0v0l0,0,0,0,0-.05v0l0,0,0,0,0,0,0-.08,0-.08,0-.07,0-.08,0-.08L52,66l0-.07,0-.08,0-.08,0-.08,0-.07,0-.08,0-.08,0-.07,0-.08,0-.08,0-.08,0-.07,0-.08,0-.08,0-.08,0-.07v0l0,0v-.1l0,0v-.1l0,0v-.1l0,0v-.1l0,0v-.1l0,0v-.1l0,0v-.1l0,0v-.06l0,0v-.1l0,0v-.05h0l0,0v0l0,0,0,0-.06,0a.43.43,0,0,0-.22-.06h-.09l-.13.05-.07,0,0,0h0l0,0,0,0v0l0,0h0v0a.08.08,0,0,0,0,0v.1h0v0h0v0h0v0h0v0h0v0h0v0h0v0h0v0h0v0h0v0h0v0h0v0h0v0h0v0h0v0h0v0h0v0h0v0h0v0h0v0h0v0h0v0h0v.06h0v.07h0v.08h0V65h0V65h0v.07h0v.08h0v.07h0v.07h0v.07h0v.08h0v.07h0v.07h0v.08h0v.08h0v.07h0V66h0v.08h0v.07h0v.07h0v.07h0v.08h0v.08h0v0h0v.13h0v0h0v.13h0v0h0v0h0v.13h0v0h0v.13h0v0h0v0h0v.13h0v0h0v.13h0v0h0v0h0v.08h0V68a.06.06,0,0,0,0,0,.07.07,0,0,0,0,0,.06.06,0,0,0,0,0h0s0,0,0,0l0,0,0,0h0l.06,0,0,0,0,0h.17l0,0,.05,0,.06,0h0l0,0,0,0,0,0h0a.06.06,0,0,0,0,0,.07.07,0,0,0,0,0,.06.06,0,0,0,0,0V65.28l0,.08,0,.07,0,.08,0,.08,0,.07,0,.08,0,.08,0,.08,0,.07,0,.08,0,.08,0,.08,0,.07,0,.08,0,.08,0,0,0,0,0,0,0,0,0,.05v0l0,0,0,0,0,.05,0,0v0l0,.05,0,0,0,0,0,0,0,0v0l0,0,0,0,0,0,0,0,0,0v.05l0,0,0,0,0,.05,0,0,0,0v0l0,.05,0,0,0,0v0s0,0,0,0l0,0,0,0h0a.11.11,0,0,0,.07,0,.23.23,0,0,0,.11,0,.27.27,0,0,0,.12,0l.07,0h0l.05,0,0,0,0,0v-.09l0,0,0-.05,0,0,0,0,0,0v-.05l0,0,0,0,0-.05,0,0,0,0v0l0,0,0,0,0,0,0,0,0,0v0l0,0L53,67l0,0,0,0,0-.05v0l0,0,0,0,0-.05,0,0,0,0v0l0,0,0-.08,0-.08,0-.07,0-.08,0-.08,0-.08,0-.07,0-.08,0-.08,0-.08,0-.07,0-.08,0-.08,0-.07,0-.08V68a.06.06,0,0,0,0,0,.07.07,0,0,0,0,0,.06.06,0,0,0,0,0h0l0,0,0,0s0,0,0,0h0l.06,0,0,0,0,0h.17l0,0,.05,0a.12.12,0,0,0,0,0h0l0,0,0,0s0,0,0,0h0a.06.06,0,0,0,0,0,.43.43,0,0,0,0,0s0,0,0,0v-.08h0v-.08h0v0h0v0h0v-.13h0v0h0v-.13h0v0h0v0h0v-.13h0v0h0v-.13h0v0h0v0h0v-.13h0v0h0V66.5h0v0h0v-.08h0v-.08h0v-.07h0v-.07h0v-.07h0V66h0V65.9h0v-.07h0v-.08h0v-.08h0v-.07h0v-.07h0v-.08h0v-.07h0v-.07h0V65.2h0v-.08h0v-.07h0V65h0v-.07h0v-.08h0v-.07h0v-.06h0v0h0v0h0v0h0v0h0v0h0v0h0v0h0v0h0v0h0v0h0v0h0v0h0v0h0v0h0v0h0v0h0v0h0v0h0v0h0v0h0v0h0v0h0" transform="translate(4 -8)"/><path class="cls-16" d="M59.49,66.72v0s0,0,0,0v-.05s0,0,0,0a.07.07,0,0,0,0,0v0a.09.09,0,0,1,0-.05v0a.19.19,0,0,1,0-.07l0-.08,0-.08,0-.08h0l0-.06s0,0,0-.08l0-.08-.06-.07v0l-.06-.06L59,65.58l-.09-.08-.05,0,0,0s0-.05,0-.08a.3.3,0,0,0,0-.08.25.25,0,0,0,0-.07l0-.08V65s0-.05,0-.08,0,0,0-.07a.22.22,0,0,0,0-.08s0,0,0-.08v-.09h0v-.55h0l0,0v0l0,0v0l0,0,0,0s0,0,0,0l0,0,0,0,0,0,0,0,0,0,0,0,0,0h0l0,0,0,0,0,0,0,0,0,0,0,0-.05,0-.06,0-.06,0h0a1.12,1.12,0,0,0-.51-.11H57a.23.23,0,0,0-.14,0,.26.26,0,0,0-.11.07l0,0h0l0,0,0,0,0,0s0,0,0,0h0v.15h0v0h0v0h0v0h0v0h0v0h0v0h0v0h0v0h0v0h0v0h0v0h0v0h0v0h0v0h0v0h0v0h0v0h0v0h0v0h0v0h0v0h0v0h0v.08h0v.08h0v.07h0V65h0V65h0v.07h0v.07h0v.07h0v.08h0v.07h0v.07h0v.08h0v.07h0v.07h0v.07h0v.08h0V66h0V66h0v.08h0v.07h0v.07h0v.07h0v.08h0v0h0v0h0v.08h0v0h0v0h0v.08h0v0h0v0h0v.13h0v0h0v.13h0v0h0v.13h0v0h0v0h0v.08h0v0h0v0h0v.08h0v0h0v0h0v0a.43.43,0,0,0,0,0s0,0,0,0v0l0,0s0,0,0,0l0,0v0l0,0,.07.05,0,0,0,0,.09,0h1l.18,0,.21,0,.13-.05,0,0,.06,0,.08,0,.07,0,.07,0,0,0L59,68l0,0,0,0,0,0,0,0,0,0,0,0,0,0,0,0,0-.05a.08.08,0,0,0,0,0l0,0s0,0,0,0,0,0,0-.05h0s0,0,0,0v0l0-.05s0,0,0,0a.07.07,0,0,0,0,0s0,0,0,0v0a.09.09,0,0,0,0,0v-.24h0v0m-.81,0v.1a.43.43,0,0,0,0,0s0,0,0,0a.43.43,0,0,1,0,0l0,0v0s0,0,0,0l0,0,0,0,0,0,0,0,0,0-.06,0a.18.18,0,0,1-.07,0l-.05,0,0,0a.65.65,0,0,1-.2,0h-.65v0h0V67.3h0v0h0v-.13h0v0h0v-.13h0v0h0v0h0v-.08h0v0h0v0h0v-.08h0v0h0v0h0v-.08h0v-.07h0V66.2h0v-.07h0v-.07H58a.54.54,0,0,1,.25.06h0l.12.08.06.06,0,0,.05.07,0,.08,0,0h0l0,0s0,0,0,0,0,0,0,.05,0,0,0,0v.09h0m-1.29-1.64h0V65h0V65h0v-.07h0v-.07h0v-.08h0v-.08h0v0h0v0h0v0h0v0h0v0h0v0h0v0h0v0h0v0h0v0h0v0h0v0h.53l.08,0h0a.09.09,0,0,1,.05,0l0,0,0,0,0,0v0l0,0,0,0,0,0v.06h0v.2h0v.09s0,.06,0,.08,0,0,0,0,0,0,0,0a.25.25,0,0,1,0,.07l0,.06,0,0-.1.08,0,0a.41.41,0,0,1-.19,0h-.42Z" transform="translate(4 -8)"/><path class="cls-16" d="M62.18,63.63V63.5a0,0,0,0,0,0,0V63.4l0,0,0,0s0,0,0,0h0L62,63.22a.28.28,0,0,0-.13,0,.31.31,0,0,0-.13,0,.39.39,0,0,0-.1.08h0s0,0,0,0l0,0,0,0v.1a0,0,0,0,1,0,0v.13h0v0h0v0h0v0h0v0h0v0h0v0h0v0h0v0h0v0h0v0h0v0h0v0h0v0h0v0h0v0h0v0h0v0h0v0h0v0h0v0h0v0h0v.06h0v.07h0v.07h0V65h0V65h0v.07h0v.07h0v.08h0v.08h0v.07h0v.07h0v.08h0v.08h0v.07h0v.07h0v.07h0V66h0V66h0v.07h0v.07h0v.08h0v.08h0v.08h0v0h0v.13h0v0h0v0h0v.13h0v0h0v0h0v.13h0v0h0v0h0v.13h0v0h0v0h0v.13h0v0h0v0h0v.13h0v0h0v0s0,0,0,0V68s0,0,0,0,0,0,0,0h0a.17.17,0,0,0,0,0s0,0,0,0l0,0h0s0,0,0,0l.05,0,0,0h.17l0,0,0,0a.12.12,0,0,0,.05,0h0l0,0a.08.08,0,0,0,0,0,.17.17,0,0,0,0,0h0s0,0,0,0,0,0,0,0V68a.06.06,0,0,0,0,0v0h0v0h0v-.13h0v0h0v0h0v-.13h0v0h0v0h0v-.13h0v0h0v0h0V67h0v0h0v0h0v-.13h0v0h0v0h0v-.13h0v0h0v-.08h0v-.08h0v-.08h0v-.07h0V66h0V66h0v-.08h0v-.07h0v-.07h0v-.07h0v-.08h0v-.08h0v-.07h0v-.07h0v-.08h0v-.08h0v-.07h0V65h0V65h0v-.08h0V64.8h0v-.07h0v-.06h0v0h0v0h0v0h0v0h0v0h0v0h0v0h0v0h0v0h0v0h0v0h0v0h0v0h0v0h0v0h0v0h0v0h0v0h0v0h0v0h0v0h0v0" transform="translate(4 -8)"/><path class="cls-16" d="M68.85,67.93v-.05a.06.06,0,0,0,0,0,.07.07,0,0,0,0,0s0,0,0-.05h0v0l0,0v0l0,0,0,0,0,0v0l0,0,0,0v0l0-.05,0,0,0,0v-.05l0,0,0,0,0,0v-.05l0,0,0,0,0,0v0l0,0,0,0,0,0v0l0,0,0-.08,0-.08,0-.07,0-.08,0-.08,0-.08,0-.07,0-.08,0-.08,0-.08,0-.07,0-.08,0-.08,0-.07,0-.08,0-.08,0-.08,0-.07,0-.08,0-.08,0-.08,0-.07v-.07l0,0v-.13l0,0v-.13l0,0v-.13l0,0V64l0,0v-.13l0,0v-.13l0,0V63.5l0,0h0s0,0,0,0l0,0s0,0,0,0l0,0-.06-.05a.31.31,0,0,0-.18-.07.34.34,0,0,0-.18.07l-.06.05,0,0,0,0,0,0s0,0,0,0h0l0,0v.13l0,0v.13l0,0V64l0,0v.13l0,0v.16l0,0v.13l0,0v.13l0,0v.07l0,.07,0,.08,0,.08,0,.08,0,.07,0,.08,0,.08,0,.08,0,.07,0,.08,0,.08,0,.07,0,.08,0,.08,0,.08,0,.07,0,.08,0,.08,0,.08,0,.07,0,.08,0,.08,0,0v0l0,0,0,0,0,0v0l0,0,0,0,0,0v.05l0,0,0,0,0,0v.05l0,0,0,0,0,.05v0l0,0,0,0,0,0v0l0,0,0,0v0l0,0v0h0s0,0,0,.05a.07.07,0,0,0,0,0,.06.06,0,0,0,0,0V68a.06.06,0,0,1,0,0s0,0,0,.05h0a.08.08,0,0,0,0,0l0,0s0,0,0,0h0l0,0a.1.1,0,0,0,0,0h0l.09,0,.08,0a.2.2,0,0,0,.09,0h0l0,0,0,0,0,0s0,0,0,0v-.05l0,0v0l0,0,0-.05,0,0v0l0-.05,0,0,0,0v0l0,0,0,0v0l0,0,0,0,0,0v0l0-.05,0,0,0,0v-.05l0,0,0,0,0,0v-.05l0,0,0,0h1.5l0,0,0,0,0,.05v0l0,0,0,0,0,.05v0l0,0,0,.05,0,0v0l0,0,0,0,0,0v0l0,0,0,0,0,0v0l0,.05,0,0v0l0,.05,0,0,0,0v.09a.17.17,0,0,1,0,0l0,0,0,0,0,0h0a.2.2,0,0,0,.09,0l.08,0,.09,0h0a.1.1,0,0,0,.05,0l0,0h0l0,0,0,0a.08.08,0,0,0,0,0h0s0,0,0-.05a.06.06,0,0,1,0,0v-.1m-2.33-2,0-.08,0-.08,0-.08,0-.07,0-.08,0-.08,0-.07,0-.08,0-.08,0-.08,0-.07,0-.08,0-.08,0-.08,0-.07v0l0,.07,0,.08,0,.08,0,.08,0,.07,0,.08,0,.08,0,.08,0,.07,0,.08,0,.08,0,.07,0,.08,0,.08,0,.08h-.87Z" transform="translate(4 -8)"/><path d="M39.55,36.61c.06-.19.12-.39.16-.58s.12-.67.18-1H40l4.88.13a2.64,2.64,0,0,1,.55.15,4.35,4.35,0,0,0,1,.24c1.39,0,2.78,0,4.18,0a4.27,4.27,0,0,0,1-.23,3.6,3.6,0,0,1,.7-.18L57,35c.25,0,.35,0,.4.32a13.81,13.81,0,0,0,.38,1.57.74.74,0,0,0,.45.55h2.61a1.16,1.16,0,0,0,.6-.58,5.56,5.56,0,0,0,.35-.88c.11-.4.17-.81.25-1.23h.28A1.23,1.23,0,0,0,63.47,34c.28-.61.6-1.2.87-1.81a1,1,0,0,0-.09-.89c-.17-.29-.4-.08-.61-.07a4.21,4.21,0,0,0,.16-.66c.1-1.09.22-2.18.27-3.27.08-1.81-.36-2.48-2-3.12a1.46,1.46,0,0,1-.82-.7,1.18,1.18,0,0,0-.67-.55c-.6-.24-1.19-.5-1.79-.76q.49-.59.24-1.05c-.2-.35-.54-.44-1.19-.3,0-.13-.08-.26-.11-.39-.29-1-.61-2.06-.87-3.1a1.12,1.12,0,0,0-1.11-1c-.77-.06-1.54-.17-2.32-.24s-1.31-.08-2-.12H45.81c-.67,0-1.34.06-2,.12s-1.57.19-2.35.24a1.13,1.13,0,0,0-1.09,1c-.28,1.06-.59,2.11-.88,3.16,0,.11-.07.22-.11.36-.47-.13-.92-.17-1.2.32a.87.87,0,0,0,.28,1c-.46.2-.89.41-1.35.57a2.2,2.2,0,0,0-1.37,1.09.65.65,0,0,1-.32.24c-.32.16-.66.29-1,.44a2.15,2.15,0,0,0-1.31,2.09c.05,1.4.19,2.79.3,4.19a2.48,2.48,0,0,0,.16.49c-.43-.28-.64,0-.8.29v.57c.34.68.69,1.36,1,2a.94.94,0,0,0,.75.52l.62.08c0,.08,0,.13,0,.18.18.63.31,1.28.54,1.89a1,1,0,0,0,.57.6h2.61c.31-.1.44-.32.62-.83m24-11.11-1-.34a.56.56,0,0,1-.23-.18c-.12-.17-.22-.36-.33-.53a2.56,2.56,0,0,1,1.52,1.05M58.14,21a.57.57,0,0,1,.69.35.55.55,0,0,1,0,.17.51.51,0,0,1-.41.54c-.27,0-.34-.16-.4-.37,0,0,0-.1,0-.15s-.22-.43.13-.54m-1.57-3.69c.41,1.38.81,2.76,1.23,4.18h-.32a5.63,5.63,0,0,0-.08-.61c-.32-1.13-.64-2.25-1-3.37,0-.12-.06-.25-.1-.38l.08,0a1.12,1.12,0,0,1,.16.22m.12,4.12-7.3-.23c-.27,0-.54,0-.8,0v-.05l-7.78.27-.45,0c-.35,0-.47-.15-.37-.49q.42-1.53.87-3.06c.22-.78.22-.77,1-.8,4.6-.15,9.21-.13,13.81,0,.31,0,.44.09.52.4.29,1.12.62,2.23.94,3.34.14.49,0,.61-.48.59M41.33,16.56c.72-.1,1.44-.21,2.16-.25a91.27,91.27,0,0,1,11,.06,14.91,14.91,0,0,1,1.63.25.53.53,0,0,1,.31.21c-5.21-.13-10.4-.13-15.6.06l0-.15a3.13,3.13,0,0,1,.57-.18m-.62.49.14,0a2.86,2.86,0,0,1-.07.28l-1,3.52a3.41,3.41,0,0,0-.07.58h-.32c.45-1.49.82-3,1.32-4.41m-2.38,4.44a.54.54,0,0,1,.54-.55c.32,0,.43.13.34.45,0,.09-.06.18-.08.27s-.14.39-.4.36a.49.49,0,0,1-.4-.53M35.64,24.3a1.93,1.93,0,0,0,.27-.31,2.13,2.13,0,0,1,1.32-1.1c.58-.21,1.14-.47,1.71-.72.09,0,.22-.11.24-.19.08-.32.3-.33.57-.34a137.44,137.44,0,0,1,15.19-.13l2.68.14a.31.31,0,0,1,.33.21.76.76,0,0,0,.33.31c.73.33,1.48.64,2.22,1a.79.79,0,0,1,.3.17c.45.58.88,1.17,1.37,1.82H35l.64-.82m-.41.07c-.16.26-.27.46-.4.65a.29.29,0,0,1-.15.14l-1,.34a3.1,3.1,0,0,1,1.57-1.13m-1.87,3.44a8.19,8.19,0,0,1,0-1,1.3,1.3,0,0,1,1.25-1.39,14,14,0,0,1,1.59-.07H61.89a3.74,3.74,0,0,1,1,.11,1.23,1.23,0,0,1,1,1.29c-.07,1.28-.18,2.57-.31,3.85,0,.52-.26.66-.79.68l-4.69.15c-4.53.15-9.07.29-13.62.15l-10.08-.31c-.5,0-.69-.19-.76-.78-.1-.9-.17-1.8-.25-2.7m2,6.76a1.7,1.7,0,0,1-1.69-1.06c-.16-.36-.36-.7-.53-1A1.49,1.49,0,0,1,33,32c-.08-.5.1-.64.58-.53a7.16,7.16,0,0,0,1.23.19c2.46.07,4.93.16,7.4.19,3.62.05,7.25.08,10.87.06,2.58,0,5.15-.14,7.72-.22.81,0,1.61-.08,2.42-.14a1.57,1.57,0,0,0,.46-.12c.28-.12.42,0,.44.26a1.54,1.54,0,0,1-.11.71c-.22.48-.48,1-.74,1.41a1.49,1.49,0,0,1-1.36.74l-3.38.12-4,.15L52,34.94a1,1,0,0,0-.43.11,1.7,1.7,0,0,1-1,.25c-1.32,0-2.64,0-4,0a4.47,4.47,0,0,1-1-.25,3.18,3.18,0,0,0-.51-.13h-2v-.06c-2.58-.1-5.16-.2-7.75-.28" transform="translate(4 -8)"/><path d="M52,33.13c2.21,0,4.42,0,6.63-.06q1.77,0,3.54-.12a8.52,8.52,0,0,0,1.1-.21l0-.08c-.43,0-.86.11-1.29.12l-6.67.09c-1.2,0-2.4,0-3.6,0-1.57,0-3.13,0-4.69,0-2.1,0-4.19,0-6.29-.07-2.27,0-4.55,0-6.83-.13A4.42,4.42,0,0,0,35,33c2.46.06,4.93.12,7.4.15,3.2,0,6.4,0,9.6,0" transform="translate(4 -8)"/><path d="M48.35,22.16c0-.17,0-.4.25-.39s.24.24.26.4,0,.61,0,.93l11.16.24c-3.65-.48-7.32-.35-11-.49,0-.31,0-.59-.08-.88s-.13-.42-.42-.43-.38.2-.4.44,0,.58-.08.88L42.59,23a36,36,0,0,0-5.48.37l11.17-.24c0-.33,0-.64.07-.94" transform="translate(4 -8)"/><path d="M35.4,30.65c3.82.08,7.64.22,11.45.22,4.25,0,8.49-.1,12.73-.16.94,0,1.87-.05,2.81-.1.43,0,.57-.16.61-.59.08-.9.15-1.8.18-2.7,0-.64-.27-.94-.91-1-.35,0-.7,0-1.06,0H48.61v0c-2.49,0-5,0-7.47,0q-3,0-6.06.07c-.8,0-1.1.33-1.08,1.13s.07,1.31.12,2c.07,1.15.14,1.21,1.28,1.23m-.54-4.07c.83,0,1.66,0,2.49,0,.38,0,.61.24.62.7s.15.45.49.45q10.15,0,20.31,0c.32,0,.44-.09.44-.43a.65.65,0,0,1,.73-.73c.76,0,1.52,0,2.27,0,.53,0,.77.24.75.77,0,.73-.06,1.47-.13,2.2s-.31.83-.94.84-1.36,0-2,0-.78-.19-.75-.77c0-.28-.15-.25-.32-.25-2.29,0-4.57.05-6.86.06-1.11,0-2.22,0-3.32,0v-.06c-3.38,0-6.75,0-10.12,0-.32,0-.43.08-.42.41a.54.54,0,0,1-.58.62c-.81,0-1.61,0-2.42,0a.67.67,0,0,1-.67-.65q-.11-1.26-.15-2.52a.58.58,0,0,1,.62-.63" transform="translate(4 -8)"/><path d="M55.59,17.26c-1,0-1.92-.07-2.87-.06-3.71,0-7.41,0-11.11.06-.24,0-.4.06-.47.32-.31,1.09-.63,2.18-1,3.28-.07.25,0,.39.28.36h.28l7.92-.28,8,.29c.42,0,.45,0,.34-.41-.3-1.06-.62-2.12-.92-3.19a.43.43,0,0,0-.47-.36M40.91,20.71c0,.13-.22.23-.33.34L40.47,21c.23-.88.45-1.75.68-2.62l.08,0c-.1.77-.19,1.55-.32,2.32m1.21.1c.14-.71.28-1.39.42-2.08a.47.47,0,0,1,.44-.4c.45,0,.91-.08,1.37-.09.91,0,1.82-.06,2.74-.09.15,0,.28,0,.34.19s.17.12.26.12c.6,0,1.19,0,1.79,0,.14,0,.27-.15.41-.23l0-.1c1.38.06,2.76.1,4.14.17.48,0,.6.15.7.63s.23,1.23.35,1.88Zm14.11-.22c-.08-.75-.18-1.5-.21-2.26.23.88.47,1.75.7,2.66-.33,0-.46-.11-.49-.4" transform="translate(4 -8)"/><path d="M38,28.57c0,.56,0,.6.59.6H58.51c.68,0,.68,0,.68-.68,0-.49,0-.53-.52-.53H38.31c-.22,0-.31.11-.3.32v.29m20.19,0v-.37h.72c.08.89.11.78-.72.74Zm-2.5-.36H58v.73H55.7Zm-14,0H55.5v.75H41.66Zm-2.51,0h2.28v.74H39.15Zm-.92,0h.67v.73c-.77.06-.76.17-.67-.73" transform="translate(4 -8)"/><path d="M61,29.92a1.36,1.36,0,0,0,0-2.71,1.36,1.36,0,1,0,0,2.71m0-2.47a1.1,1.1,0,1,1-1.11,1.08A1.1,1.1,0,0,1,61,27.45" transform="translate(4 -8)"/><path d="M36.17,29.92a1.36,1.36,0,1,0-1.37-1.34,1.35,1.35,0,0,0,1.37,1.34m0-2.46a1.11,1.11,0,1,1-1.11,1.11,1.1,1.1,0,0,1,1.11-1.11" transform="translate(4 -8)"/><path class="cls-16" d="M75,71.68a6.65,6.65,0,0,0-3,1.6,6.36,6.36,0,0,0,3.36.31,6.62,6.62,0,0,0,3-1.61,6.42,6.42,0,0,0-3.36-.3" transform="translate(4 -8)"/><path class="cls-16" d="M72.05,67.56a7.83,7.83,0,0,0-2.26,2.86,10.27,10.27,0,0,0-.85,3.87,7.94,7.94,0,0,0,2.26-2.86,10.27,10.27,0,0,0,.85-3.87" transform="translate(4 -8)"/><path class="cls-16" d="M66.44,77.07a6.86,6.86,0,0,0,3.26,1.16A6.3,6.3,0,0,0,73,77.45,6.91,6.91,0,0,0,69.7,76.3a6.24,6.24,0,0,0-3.26.77" transform="translate(4 -8)"/><path class="cls-16" d="M62.91,77.4a7.43,7.43,0,0,0,2.47-2.61,10,10,0,0,0,1.13-3.74A7.56,7.56,0,0,0,64,73.65a10,10,0,0,0-1.13,3.75" transform="translate(4 -8)"/><path class="cls-16" d="M60.87,79.52A7.22,7.22,0,0,0,64,81a6.21,6.21,0,0,0,3.33-.4,7.34,7.34,0,0,0-3.18-1.51,6.19,6.19,0,0,0-3.32.4" transform="translate(4 -8)"/><path class="cls-16" d="M58.44,76.5a9,9,0,0,0-1.73,3.36,6.76,6.76,0,0,0,2.87-1.93,9.12,9.12,0,0,0,1.74-3.36,6.82,6.82,0,0,0-2.88,1.93" transform="translate(4 -8)"/><path class="cls-16" d="M54.75,82.07A7.21,7.21,0,0,0,58,83.5a6.18,6.18,0,0,0,3.3-.49,7.21,7.21,0,0,0-3.19-1.43,6.21,6.21,0,0,0-3.31.49" transform="translate(4 -8)"/><path class="cls-16" d="M52.42,79.5A9.58,9.58,0,0,0,51,83.06a7,7,0,0,0,2.7-2.25,9.51,9.51,0,0,0,1.47-3.55,7,7,0,0,0-2.7,2.24" transform="translate(4 -8)"/><path class="cls-16" d="M75.7,68.48a10.3,10.3,0,0,0,.81-3.88,7.89,7.89,0,0,0-2.23,2.88,10.43,10.43,0,0,0-.82,3.88,8,8,0,0,0,2.24-2.88" transform="translate(4 -8)"/><path class="cls-16" d="M24.16,71.88a6.48,6.48,0,0,0-3.36.31,6.72,6.72,0,0,0,3,1.6,6.42,6.42,0,0,0,3.36-.3,6.62,6.62,0,0,0-3-1.61" transform="translate(4 -8)"/><path class="cls-16" d="M27.11,67.77A10.21,10.21,0,0,0,28,71.63a7.83,7.83,0,0,0,2.26,2.86,10.21,10.21,0,0,0-.85-3.86,7.83,7.83,0,0,0-2.26-2.86" transform="translate(4 -8)"/><path class="cls-16" d="M29.46,76.5a7,7,0,0,0-3.26,1.16,6.3,6.3,0,0,0,3.26.78,7,7,0,0,0,3.26-1.16,6.3,6.3,0,0,0-3.26-.78" transform="translate(4 -8)"/><path class="cls-16" d="M32.65,71.25A10,10,0,0,0,33.78,75a7.46,7.46,0,0,0,2.47,2.6,10,10,0,0,0-1.13-3.74,7.53,7.53,0,0,0-2.47-2.61" transform="translate(4 -8)"/><path class="cls-16" d="M35,79.32a7.3,7.3,0,0,0-3.18,1.52,6.21,6.21,0,0,0,3.33.4,7.3,7.3,0,0,0,3.17-1.52,6.3,6.3,0,0,0-3.32-.4" transform="translate(4 -8)"/><path class="cls-16" d="M37.84,74.78a9.12,9.12,0,0,0,1.74,3.36,6.82,6.82,0,0,0,2.87,1.93,9,9,0,0,0-1.73-3.36,6.82,6.82,0,0,0-2.88-1.93" transform="translate(4 -8)"/><path class="cls-16" d="M41.1,81.79a7.13,7.13,0,0,0-3.19,1.42,6.16,6.16,0,0,0,3.31.5,7.21,7.21,0,0,0,3.19-1.43,6.21,6.21,0,0,0-3.31-.49" transform="translate(4 -8)"/><path class="cls-16" d="M45.51,80.81a7,7,0,0,0,2.7,2.25,9.58,9.58,0,0,0-1.47-3.56A7,7,0,0,0,44,77.26a9.51,9.51,0,0,0,1.47,3.55" transform="translate(4 -8)"/><path class="cls-16" d="M49.78,85C55,80.32,62.4,79.3,68.31,75.6A19.14,19.14,0,0,0,73,71.45c.11-.13-.08-.33-.19-.19a23.16,23.16,0,0,1-9.27,6.44c-3.45,1.47-7,2.6-10.31,4.48a20.78,20.78,0,0,0-3.69,2.67c-5.16-4.68-12.44-5.75-18.32-9.33a18.89,18.89,0,0,1-5-4.26c-.11-.14-.3.06-.19.19a22.88,22.88,0,0,0,9,6.36c3.44,1.5,7,2.61,10.32,4.45A21.08,21.08,0,0,1,49.38,85c-.38.36-.75.74-1.1,1.13-.12.13.07.33.19.19.36-.4.73-.77,1.11-1.13.39.36.76.74,1.11,1.13.12.14.31-.06.19-.19-.35-.4-.72-.77-1.1-1.13" transform="translate(4 -8)"/><path class="cls-16" d="M25.92,71.56a10.39,10.39,0,0,0-.82-3.87,7.78,7.78,0,0,0-2.23-2.88,10.23,10.23,0,0,0,.81,3.87,7.86,7.86,0,0,0,2.24,2.88" transform="translate(4 -8)"/><path class="cls-17" d="M85.6,38.41H14.12a11.35,11.35,0,0,0,0,22.69H85.6a11.35,11.35,0,0,0,0-22.69m0,21.71H14.12a10.37,10.37,0,0,1,0-20.73H85.6a10.37,10.37,0,0,1,0,20.73" transform="translate(4 -8)"/><path class="cls-18" d="M85.73,36.07h-.32l-.13-.31a38.25,38.25,0,0,0-70.82,0l-.12.31H14a14.14,14.14,0,0,0,0,28.27h.33l.12.3a38.25,38.25,0,0,0,70.82,0l.13-.3h.32a14.14,14.14,0,0,0,0-28.27M24.16,71.88a6.62,6.62,0,0,1,3,1.61,6.42,6.42,0,0,1-3.36.3,6.72,6.72,0,0,1-3-1.6,6.48,6.48,0,0,1,3.36-.31m-1.29-7.07a7.78,7.78,0,0,1,2.23,2.88,10.39,10.39,0,0,1,.82,3.87,7.86,7.86,0,0,1-2.24-2.88,10.23,10.23,0,0,1-.81-3.87M35.12,81.24a6.21,6.21,0,0,1-3.33-.4A7.3,7.3,0,0,1,35,79.32a6.3,6.3,0,0,1,3.32.4,7.3,7.3,0,0,1-3.17,1.52m6,.55a6.21,6.21,0,0,1,3.31.49,7.21,7.21,0,0,1-3.19,1.43,6.16,6.16,0,0,1-3.31-.5,7.13,7.13,0,0,1,3.19-1.42M29.46,78.44a6.3,6.3,0,0,1-3.26-.78,7,7,0,0,1,3.26-1.16,6.3,6.3,0,0,1,3.26.78,7,7,0,0,1-3.26,1.16m20.12,6.79c-.38.36-.75.73-1.11,1.13-.12.14-.31-.06-.19-.19.35-.39.72-.77,1.1-1.13a21.08,21.08,0,0,0-3.9-2.78c-3.28-1.84-6.88-3-10.32-4.45a22.88,22.88,0,0,1-9-6.36c-.11-.13.08-.33.19-.19a18.89,18.89,0,0,0,5,4.26c5.88,3.58,13.16,4.65,18.32,9.33a20.78,20.78,0,0,1,3.69-2.67c3.26-1.88,6.86-3,10.31-4.48a23.16,23.16,0,0,0,9.27-6.44c.11-.14.3.06.19.19a19.14,19.14,0,0,1-4.73,4.15C62.4,79.3,55,80.32,49.78,85c.38.36.75.73,1.1,1.13.12.13-.07.33-.19.19-.35-.39-.72-.77-1.11-1.13m-7-17.76h.06l.11,0h0l.06,0,0,0v0l0,0a.08.08,0,0,0,0,0s0,0,0,0v0a.09.09,0,0,1,0,0,.07.07,0,0,1,0,0v0h0V68a.09.09,0,0,0,0,0v0a.08.08,0,0,1,0,0l0,0v0l0,0-.06.05,0,0-.06,0-.11,0H41.16l-.07,0-.05,0,0,0,0-.05,0,0v0l0,0a.08.08,0,0,1,0,0l0,0v0l0,0v-.09h0v0h0v0h0v0h0v-.13h0v0h0v0h0v-.13h0v0h0V67.2h0v0h0v0h0V67h0v0h0v0h0v-.13h0v0h0v-.18h0v0h0v-.08h0v-.08h0v-.07h0v-.07h0V66h0V66h0v-.07h0V65.8h0v-.08h0v-.08h0v-.07h0v-.07h0v-.08h0v-.08h0v-.07h0v-.07h0V65.1h0V65h0V65h0v-.07h0v-.07h0v-.08h0v-.1h0v0h0v0h0v0h0v0h0v0h0v0h0v0h0v0h0v0h0v0h0v0h0v0h0v0h0v0h0v0h0v0h0v0h0v0h0v0h0v0h0v0h0V63.5a0,0,0,0,0,0,0v0l0,0s0,0,0,0l0,0v0h0l.11-.08.12,0a.28.28,0,0,1,.13,0l.11.08h0l0,0a.05.05,0,0,1,0,0l0,0v.1a0,0,0,0,1,0,0v.13h0v3.81Zm-.17,12.6a6.82,6.82,0,0,1-2.87-1.93,9.12,9.12,0,0,1-1.74-3.36,6.82,6.82,0,0,1,2.88,1.93,9,9,0,0,1,1.73,3.36M38.76,65.81v.08a.22.22,0,0,0,0,.08v.08a.22.22,0,0,0,0,.08s0,.05,0,.08,0,.05,0,.08,0,0,0,.08,0,0,0,.08v0h0v.1s0,0,0,.05v0l0,0v.05l0,0,0,0v0l0,0s0,0,0,.05l0,0,0,0v0l0,0,0,0,0,.05,0,0,0,0,0,.05,0,0a.1.1,0,0,1,0,0l0,0,0,0,0,0,0,0,0,0,0,0,0,0-.05,0,0,0,0,0-.06,0-.06,0h0a.18.18,0,0,1-.07.05l-.07,0-.09,0-.1,0-.11,0-.05,0-.1,0-.23,0h-.45l-.24,0-.09,0,0,0-.11,0-.1,0-.09,0-.07,0a.18.18,0,0,1-.07-.05h0l-.06,0-.06,0-.05,0-.06,0-.05,0,0,0,0,0,0,0,0,0,0,0,0,0,0,0,0,0,0,0,0-.05,0,0,0,0,0-.05,0,0,0,0v0l0,0,0,0,0-.05,0,0,0,0,0,0v0l0-.05v0l0,0a.43.43,0,0,0,0-.05v0s0,0,0,0h0v0s0,0,0-.08,0-.05,0-.08a720244373906.94,720244373906.94,0,0,0,0-.16v-.08s0,0,0-.08v-.4a.19.19,0,0,0,0-.08,960325831872.95,960325831872.95,0,0,0,0-.16.25.25,0,0,1,0-.08s0,0,0-.08,0,0,0-.08h0s0,0,0-.08,0-.05,0-.08a.19.19,0,0,0,0-.08l0-.07,0-.08v-.11l0,0v0l0,0v0h0v-.06l0,0,0,0,0,0v0l0,0,0,0,0,0,0,0,0,0,0,0,0,0,0,0,0,0,0,0h0l0,0,0,0,0,0,0,0,0,0,0,0,0,0,0,0,0,0,0,0,0,0,.05,0,0,0h0l0,0,0,0,.06,0,.06,0,.07,0,.07,0,.08,0h0l.56-.1a1.49,1.49,0,0,1,.55.1h0l.08,0,.07,0,.07,0,.06,0,.06,0,0,0,.05,0h0l0,0,0,0,0,0,0,0,0,0,0,0,0,0,0,0,0,0,0,0,0,0,0,0,0,0h0l0,0,0,0,0,0,0,0,0,0,0,0,0,0,0,0,0,0,0,0,0,0,0,0,0,0v0l0,0v0h0v.07l0,0v0l0,0v.07l0,.08s0,0,0,.07a2055142501986.7,2055142501986.7,0,0,1,0,.16.24.24,0,0,1,0,.08h0s0,.06,0,.08,0,.06,0,.08,0,.06,0,.08a.19.19,0,0,0,0,.08v.08a.25.25,0,0,1,0,.08v.08a.22.22,0,0,1,0,.08v.08m-3.64,8a10,10,0,0,1,1.13,3.74A7.46,7.46,0,0,1,33.78,75a10,10,0,0,1-1.13-3.75,7.53,7.53,0,0,1,2.47,2.61m-5.52-8V66a1440488747805.52,1440488747805.52,0,0,0,0,.16s0,.05,0,.08a.09.09,0,0,0,0,.05v0a.24.24,0,0,0,0,.08.24.24,0,0,0,0,.08l0,0v0l0,0,0,.05,0,0h0l0,0,0,.05,0,0,0,0,0,0,0,0,0,0h0l0,0,.05,0,0,0,.06,0,.06.05,0,0,0,0,.08,0,.09.05.11,0,0,0,.12,0a1.06,1.06,0,0,0,.5,0l.1,0,.06,0,.11,0,.09-.05.07,0h0l.07,0,.05-.05.06,0,0,0,.05,0h0l0,0L32,67l0,0,0,0,0,0,0,0,0-.05h0s0,0,0,0l0,0,0-.05,0,0h0a.27.27,0,0,1,.13,0h.06a.23.23,0,0,1,.11,0,0,0,0,0,1,0,0,.1.1,0,0,1,.06,0l0,0,0,0,0,0s0,0,0,0h0s0,0,0,0a.43.43,0,0,0,0,0v0s0,0,0,0v.27h0l0,0,0,.05,0,0a.08.08,0,0,1,0,0l0,.05,0,0,0,0,0,0,0,0,0,.05,0,0h0l0,0,0,0-.05,0,0,0,0,0-.06,0-.06,0-.06,0h0l-.08,0-.09,0-.1,0-.12,0-.09,0-.06,0-.23,0h-.47l-.23,0-.1,0-.05,0-.11,0-.1,0-.08,0-.08,0L30,68.07h0l-.05,0-.07,0-.05,0-.05,0,0,0-.05,0,0,0,0,0,0,0,0,0,0,0,0,0,0,0,0,0,0-.05,0,0,0,0,0-.05,0,0,0,0v0l0,0,0,0s0,0,0-.05l0,0,0,0v0l0,0,0-.05v0l0,0V66.5h0v0s0,0,0-.08,0-.05,0-.08a2880977495630.33,2880977495630.33,0,0,0,0-.24.22.22,0,0,0,0-.08v-.32s0-.05,0-.08v-.08a.19.19,0,0,0,0-.08s0,0,0-.08a.19.19,0,0,0,0-.08s0,0,0-.08,0,0,0-.08h0A.24.24,0,0,0,29,65a.19.19,0,0,0,0-.08l0-.08a.19.19,0,0,1,0-.07l0-.08v-.07l0,0v0l0,0v-.07h0v0l0,0v0l0,0,0,0,0,0,0,0,0,0,0,0,0,0,0,0,0,0,0,0,0,0,0,0,0,0h0l0,0,0,0,0,0,0,0,0,0,0,0,0,0,0,0,0,0,0,0,0,0,0,0,0,0h0l.05,0,0,0,.06,0,.06,0,.07,0,.07,0,.09,0h0a1.54,1.54,0,0,1,.56-.1,1.89,1.89,0,0,1,.53.08l.08,0,.08,0,.08,0,.06,0,.06,0,.05,0,.06,0h0l0,0,.05,0s0,0,0,0l0,0,0,0,0,0,0,0,0,0,0,0,0,0,0,0,0,0h0l0,0,0,0,0,0,0,0,0,0,0,0,0,0,0,0,0,0,0,0,0,0,0,0,0,0v0l0,0v0h0v.26h0s0,0,0,0a.25.25,0,0,1,0,.08s0,0,0,0l0,0a.22.22,0,0,1,0,.08v0l-.06.05-.05,0a.22.22,0,0,1-.13,0,.25.25,0,0,1-.16-.06h0a.29.29,0,0,1-.07-.08.56.56,0,0,1-.05-.08h0l0-.07a.56.56,0,0,0,0-.08l0,0,0,0,0,0,0,0,0,0,0,0h0l0,0,0,0s0,0,0,0l0,0s0,0,0,0l0,0,0,0,0,0,0,0-.05,0-.06,0-.07,0-.08,0,0,0-.06,0-.17,0h-.24l-.18,0-.1,0-.08,0-.07,0h0l-.05,0-.06,0,0,0-.05,0,0,0,0,0,0,0,0,0,0,0,0,0,0,0h0l0,0,0,0,0,0s0,0,0,0,0,0,0,0a.56.56,0,0,0,0,.08l0,.07a.59.59,0,0,1,0,.08l0,.08,0,.08h0a.25.25,0,0,0,0,.07l0,.08a.19.19,0,0,1,0,.08s0,.06,0,.08a1920651663748.35,1920651663748.35,0,0,1,0,.16.25.25,0,0,0,0,.08v.16m-.23,4.82a10.21,10.21,0,0,1,.85,3.86A7.83,7.83,0,0,1,28,71.63a10.21,10.21,0,0,1-.85-3.86,7.83,7.83,0,0,1,2.26,2.86M46.74,79.5a9.58,9.58,0,0,1,1.47,3.56,7,7,0,0,1-2.7-2.25A9.51,9.51,0,0,1,44,77.26a7,7,0,0,1,2.7,2.24M44.17,65.79v-.14s0-.05,0-.08v-.08a.19.19,0,0,0,0-.08s0,0,0-.08a.19.19,0,0,0,0-.08s0,0,0-.08,0,0,0-.08h0s0,0,0-.08a.19.19,0,0,0,0-.08l0-.08s0,0,0-.07l0-.08v-.07l0,0v0l0,0v0l0,0h0v0l0,0v0l0,0,0,0,0,0,0,0,0,0,0,0,0,0,0,0,0,0,0,0,0,0,0,0,0,0h0l0,0,0,0,0,0,0,0,0,0,0,0,0,0,0,0,0,0,0,0,0,0,0,0,0,0h0l0,0,.05,0,0,0,.06,0,.07,0,.07,0,.09,0h0l.56-.1a1.45,1.45,0,0,1,.55.1h0l.09,0,.07,0,.07,0,0,0,.06,0,0,0,0,0h0l0,0,0,0,0,0,0,0,0,0,0,0,0,0,0,0,0,0,0,0,0,0,0,0,0,0h0l0,0,0,0,0,0,0,0,0,0,0,0,0,0,0,0,0,0v0l0,0,0,0,0,0,0,0v0l0,0h0v0l0,0v0l0,0v.11l0,.08,0,.07a.19.19,0,0,0,0,.08s0,.06,0,.08a.24.24,0,0,0,0,.08h0s0,.06,0,.08,0,.06,0,.08,0,.06,0,.08,0,.06,0,.08,0,.06,0,.08v.08a.25.25,0,0,1,0,.08V66s0,0,0,.08a1920651663751.48,1920651663751.48,0,0,0,0,.24s0,0,0,.08,0,0,0,.08v0h0v.15l0,0v0l0,.05v0l0,0,0,0,0,0,0,.05,0,0v0l0,0,0,0,0,.05,0,0,0,0,0,.05,0,0,0,0,0,0,0,0,0,0,0,0,0,0s0,0,0,0l0,0-.05,0,0,0-.06,0-.06,0-.06,0h0l-.07.05-.08,0-.08,0-.1,0-.12,0,0,0-.09,0-.23,0H46l-.23,0-.1,0-.05,0-.11,0-.1,0-.08,0-.08,0-.07-.05h0s0,0-.05,0l-.07,0-.05,0,0,0-.05,0,0,0,0,0,0,0,0,0,0,0,0,0,0,0,0,0,0,0,0-.05,0,0,0,0,0-.05,0,0s0,0,0,0v0l0,0,0-.05,0,0v0l0,0,0,0v-.05l0,0v0l0-.05v-.1h0v0s0,0,0-.08,0-.05,0-.08a720244373907,720244373907,0,0,0,0-.16s0,0,0-.08V66a.22.22,0,0,1,0-.08v-.1m10.2-2.12v0h0v0h0v0h0v0h0v0h0v0h0v0h0v0h0v0h0v0h0v0h0v0h0v0h0v0h0v0h0v0h0v0h0v0h0v0h0v0h0v0h0v0h0v.06h0v.07h0v.08h0V65h0V65h0v.07h0v.08h0v.07h0v.07h0v.07h0v.08h0v.07h0v.07h0v.08h0v.08h0v.07h0V66h0v.08h0v.07h0v.07h0v.07h0v.08h0v.08h0v0h0v.13h0v0h0v.13h0v0h0v0h0v.13h0v0h0v.13h0v0h0v0h0v.13h0v0h0v.13h0v0h0v0h0v.08h0V68s0,0,0,0a.43.43,0,0,1,0,0,.06.06,0,0,1,0,0h0s0,0,0,0l0,0,0,0h0a.12.12,0,0,1,0,0l-.05,0,0,0h-.17l0,0,0,0-.06,0h0l0,0,0,0,0,0h0a.06.06,0,0,1,0,0,.07.07,0,0,1,0,0,.06.06,0,0,1,0,0V65.28l0,.08,0,.07,0,.08,0,.08,0,.07,0,.08,0,.08,0,.08,0,.07,0,.08,0,.08,0,.08,0,.07,0,.08,0,.08,0,0v0l0,0,0,0,0,.05,0,0,0,0v0l0,.05,0,0,0,0L53,67l0,0v0l0,0,0,0,0,0,0,0,0,0v0l0,0,0,0,0,.05,0,0,0,0v.05l0,0,0,0,0,0,0,.05,0,0V68l0,0,0,0-.05,0h0l-.07,0-.12,0-.11,0-.07,0h0l0,0,0,0s0,0,0,0v0l0,0,0,0,0-.05v0l0,0,0,0,0-.05,0,0,0,0v-.05l0,0,0,0,0,0,0,0,0,0v0l0,0,0,0,0,0,0,0,0-.05v0l0,0,0-.05,0,0,0,0v0l0-.05,0,0,0,0,0,0,0,0,0-.08,0-.08,0-.07,0-.08,0-.08,0-.08,0-.07,0-.08,0-.08,0-.08,0-.07,0-.08,0-.08,0-.07,0-.08V68a.06.06,0,0,1,0,0,.07.07,0,0,1,0,0,.06.06,0,0,1,0,0h0l0,0,0,0,0,0h0l-.06,0-.05,0,0,0h-.17l0,0,0,0-.06,0h0l0,0,0,0s0,0,0,0h0a.06.06,0,0,1,0,0,.07.07,0,0,1,0,0,.06.06,0,0,1,0,0v-.08h0v-.08h0v0h0v0h0v-.13h0v0h0v-.13h0v0h0v0h0v-.13h0v0h0v-.13h0v0h0v0h0v-.13h0v0h0V66.5h0v0h0v-.08h0v-.08h0v-.07h0v-.07h0v-.07h0V66h0V65.9h0v-.07h0v-.08h0v-.08h0v-.07h0v-.07h0v-.08h0v-.07h0v-.07h0V65.2h0v-.08h0v-.07h0V65h0v-.07h0v-.08h0v-.07h0v-.06h0v0h0v0h0v0h0v0h0v0h0v0h0v0h0v0h0v0h0v0h0v0h0v0h0v0h0v0h0v0h0v0h0v0h0v0h0v0h0v0h0v0h0v0h0v-.1a.08.08,0,0,1,0,0v0h0l0,0v0l0,0,0,0h0l0,0,.07,0,.13-.05h.09a.43.43,0,0,1,.22.06l.06,0,0,0,0,0v0l0,0h0v.05l0,0v.1l0,0v.06l0,0v.1l0,0V64l0,0v.1l0,0v.1l0,0v.1l0,0v.1l0,0v.1l0,0v0l0,.07,0,.08,0,.08,0,.08,0,.07,0,.08,0,.08,0,.08,0,.07,0,.08,0,.08,0,.07,0,.08,0,.08,0,.08L52,66l0,.08,0,.08,0,.08,0,.07,0,.08,0,.08,0,0,0,0,0,0v0l0,.05,0,0,0,0v0l0,0,0,0,0-.05v0l0,0,0,0,0,0,0-.08,0-.08,0-.07,0-.08,0-.08,0-.08,0-.07,0-.08,0-.08,0-.08,0-.07,0-.08,0-.08,0-.07,0-.08,0-.08,0-.08,0-.07L53,65l0-.08,0-.08,0-.07v-.1l0,0v-.1l0,0v-.09l0,0v-.09l0,0v-.1l0,0V64l0,0v-.1l0,0v-.1l0,0v-.1l0,0v-.09h0v0s0,0,0,0l0,0,0,0a.18.18,0,0,1,.07,0,.39.39,0,0,1,.21-.06H54l.12.05a.18.18,0,0,1,.07,0l0,0h0s0,0,0,0l0,0,0,0s0,0,0,0h0v0a.08.08,0,0,1,0,0v.1h0Zm.75,13.59a9.31,9.31,0,0,1-1.47,3.55A7,7,0,0,1,51,83.06a9.58,9.58,0,0,1,1.47-3.56,7,7,0,0,1,2.7-2.24m3.8-11.76.09.08.06.08.06.06v0l.06.07,0,.08s0,0,0,.08l0,.06h0l0,.08,0,.08,0,.08a.19.19,0,0,0,0,.07v0a.09.09,0,0,0,0,.05v0a.07.07,0,0,1,0,0v.09s0,0,0,0v.09h0V67a.43.43,0,0,1,0,0,.09.09,0,0,1,0,0v0s0,0,0,0a.07.07,0,0,1,0,0s0,0,0,0l0,.05v0s0,0,0,0h0s0,0,0,.05l0,0,0,0a.08.08,0,0,1,0,0l0,.05,0,0,0,0,0,0,0,0,0,0,0,0,0,0,0,0-.06,0,0,0-.07,0-.07,0-.08,0-.06,0,0,0-.13.05-.21,0-.18,0H57l-.09,0,0,0,0,0-.07-.05,0,0v0l0,0s0,0,0,0l0,0v0s0,0,0,0a.43.43,0,0,1,0,0v0h0v0h0v0h0v-.08h0v0h0v0h0v-.08h0v0h0v0h0V67.3h0v0h0v-.13h0v0h0v-.13h0v0h0v0h0v-.08h0v0h0v0h0v-.08h0v0h0v0h0v-.08h0v-.07h0V66.2h0v-.07h0V66h0V66h0v-.07h0v-.08h0v-.07h0v-.07h0v-.07h0V65.5h0v-.07h0v-.07h0v-.08h0V65.2h0v-.07h0V65h0V65h0v-.07h0v-.07h0v-.08h0v-.08h0v0h0v0h0v0h0v0h0v0h0v0h0v0h0v0h0v0h0v0h0v0h0v0h0v0h0v0h0v0h0v0h0v0h0v0h0v0h0v0h0v0h0v0h0V63.5h0s0,0,0,0l0,0,0,0,0,0h0l0,0a.26.26,0,0,1,.11-.07.23.23,0,0,1,.14,0h.82a1.12,1.12,0,0,1,.51.11h0l.06,0,.06,0,.05,0,0,0,0,0,0,0,0,0,0,0,0,0h0l0,0,0,0,0,0,0,0,0,0,0,0,0,0s0,0,0,0l0,0,0,0v0l0,0v0l0,0h0v.55h0v.08s0,0,0,.08a.22.22,0,0,1,0,.08s0,0,0,.07,0,.06,0,.08v.08l0,.08a.25.25,0,0,1,0,.07.3.3,0,0,1,0,.08s0,.05,0,.08l0,0,.05,0m2.4,9.07a9.12,9.12,0,0,1-1.74,3.36,6.76,6.76,0,0,1-2.87,1.93,9,9,0,0,1,1.73-3.36,6.82,6.82,0,0,1,2.88-1.93m.16-6.68h0v0h0v-.13h0v0h0v0h0v-.13h0v0h0v0h0v-.13h0v0h0v0h0V67h0v0h0v0h0v-.13h0v0h0v0h0v-.13h0v0h0v-.08h0v-.08h0v-.08h0v-.07h0V66h0V66h0v-.08h0v-.07h0v-.07h0v-.07h0v-.08h0v-.08h0v-.07h0v-.07h0v-.08h0v-.08h0v-.07h0V65h0V65h0v-.08h0V64.8h0v-.07h0v-.06h0v0h0v0h0v0h0v0h0v0h0v0h0v0h0v0h0v0h0v0h0v0h0v0h0v0h0v0h0v0h0v0h0v0h0v0h0v0h0v0h0v0h0v-.13a0,0,0,0,0,0,0v-.1l0,0,0,0s0,0,0,0h0a.39.39,0,0,1,.1-.08.31.31,0,0,1,.13,0,.28.28,0,0,1,.13,0l.11.08h0s0,0,0,0l0,0,0,0v.07a0,0,0,0,1,0,0v.16h0v0h0v0h0v0h0v0h0v0h0v0h0v0h0v0h0v0h0v0h0v0h0v0h0v0h0v0h0v0h0v0h0v0h0v0h0v0h0v0h0v0h0v.06h0v.07h0v.07h0V65h0V65h0v.07h0v.07h0v.08h0v.08h0v.07h0v.07h0v.08h0v.08h0v.07h0v.07h0v.07h0V66h0V66h0v.07h0v.07h0v.08h0v.08h0v.08h0v0h0v.13h0v0h0v0h0v.13h0v0h0v0h0v.13h0v0h0v0h0v.13h0v0h0v0h0v.13h0v0h0v0h0v.13h0v0h0v0a.06.06,0,0,1,0,0V68s0,0,0,0,0,0,0,0h0a.17.17,0,0,1,0,0,.08.08,0,0,1,0,0l0,0h0a.12.12,0,0,1-.05,0l0,0,0,0h-.17l0,0-.05,0s0,0,0,0h0l0,0s0,0,0,0a.17.17,0,0,1,0,0h0s0,0,0,0,0,0,0,0V68s0,0,0,0v0m5,3.16a10,10,0,0,1-1.13,3.74,7.43,7.43,0,0,1-2.47,2.61A10,10,0,0,1,64,73.65a7.56,7.56,0,0,1,2.47-2.6M65.05,68v-.07a.06.06,0,0,1,0,0,.07.07,0,0,1,0,0s0,0,0-.05h0v0l0,0v0l0,0,0,0v0l0,0,0,0,0,0v0l0-.05,0,0,0,0v-.05l0,0,0,0,0,0v-.05l0,0,0,0,0,0v0l0,0,0,0,0,0v0l0,0,0-.08,0-.08,0-.07,0-.08,0-.08,0-.08,0-.07,0-.08,0-.08,0-.08,0-.07,0-.08,0-.08,0-.07,0-.08,0-.08,0-.08,0-.07,0-.08,0-.08,0-.08,0-.07v-.07l0,0v-.13l0,0v-.13l0,0v-.16l0,0V64l0,0v-.13l0,0v-.13l0,0V63.5l0,0h0s0,0,0,0l0,0,0,0,0,0,.06-.05a.34.34,0,0,1,.18-.07.31.31,0,0,1,.18.07l.06.05,0,0s0,0,0,0l0,0s0,0,0,0h0l0,0v.13l0,0v.13l0,0V64l0,0v.17l0,0v.13l0,0v.13l0,0v.13l0,0v.07l0,.07,0,.08,0,.08,0,.08,0,.07,0,.08,0,.08,0,.08,0,.07,0,.08,0,.08,0,.07,0,.08,0,.08,0,.08,0,.07,0,.08,0,.08,0,.08,0,.07,0,.08,0,.08,0,0v0l0,0,0,0,0,0v0l0,0,0,0,0,0v.05l0,0,0,0,0,0v.05l0,0,0,0,0,.05v0l0,0,0,0,0,0v0l0,0,0,0v0l0,0v0h0s0,0,0,.05a.07.07,0,0,1,0,0,.06.06,0,0,1,0,0V68a.06.06,0,0,0,0,0s0,0,0,.05h0a.08.08,0,0,1,0,0l0,0,0,0h0l0,0a.1.1,0,0,1-.05,0h0l-.09,0-.08,0a.2.2,0,0,1-.09,0h0l0,0,0,0,0,0a.17.17,0,0,0,0,0v-.05l0,0,0,0,0,0v-.05l0,0,0,0,0-.05v0l0,0,0,0,0,0v0l0,0,0,0,0,0v0l0,0,0-.05,0,0v0l0-.05,0,0,0,0v0l0-.05,0,0,0,0H66.2l0,0,0,0v.05l0,0,0,0,0,0v.05l0,0,0,0,0,.05v0l0,0,0,0,0,0v0l0,0,0,0v0l0,0,0,0,0,.05v0l0,0,0,.05,0,0v0l0,0v.05s0,0,0,0l0,0,0,0,0,0h0a.2.2,0,0,1-.09,0l-.08,0-.09,0h0a.1.1,0,0,1,0,0l0,0h0l0,0,0,0a.08.08,0,0,1,0,0h0s0,0,0-.05a.06.06,0,0,0,0,0V68m3.89,6.34a10.27,10.27,0,0,1,.85-3.87,7.83,7.83,0,0,1,2.26-2.86,10.27,10.27,0,0,1-.85,3.87,7.94,7.94,0,0,1-2.26,2.86m-8.07,5.23a6.19,6.19,0,0,1,3.32-.4,7.34,7.34,0,0,1,3.18,1.51A6.21,6.21,0,0,1,64,81a7.22,7.22,0,0,1-3.17-1.51M61.25,83a6.18,6.18,0,0,1-3.3.49,7.21,7.21,0,0,1-3.2-1.43,6.21,6.21,0,0,1,3.31-.49A7.21,7.21,0,0,1,61.25,83m5.19-5.94a6.24,6.24,0,0,1,3.26-.77A6.91,6.91,0,0,1,73,77.45a6.3,6.3,0,0,1-3.26.78,6.86,6.86,0,0,1-3.26-1.16M72,73.28a6.65,6.65,0,0,1,3-1.6,6.42,6.42,0,0,1,3.36.3,6.62,6.62,0,0,1-3,1.61A6.36,6.36,0,0,1,72,73.28m2.29-5.8a7.89,7.89,0,0,1,2.23-2.88,10.3,10.3,0,0,1-.81,3.88,8,8,0,0,1-2.24,2.88,10.43,10.43,0,0,1,.82-3.88M14.12,61.1a11.35,11.35,0,0,1,0-22.69H85.6a11.35,11.35,0,0,1,0,22.69ZM32.78,31.56c.16-.33.37-.57.8-.29a2.48,2.48,0,0,1-.16-.49c-.11-1.4-.25-2.79-.3-4.19a2.15,2.15,0,0,1,1.31-2.09c.33-.15.67-.28,1-.44a.65.65,0,0,0,.32-.24,2.2,2.2,0,0,1,1.37-1.09c.46-.16.89-.37,1.35-.57a.87.87,0,0,1-.28-1c.28-.49.73-.45,1.2-.32,0-.14.07-.25.11-.36.29-1,.6-2.1.88-3.16a1.13,1.13,0,0,1,1.09-1c.78-.05,1.56-.17,2.35-.24s1.33-.08,2-.12h5.61c.66,0,1.32.06,2,.12s1.55.18,2.32.24a1.12,1.12,0,0,1,1.11,1c.26,1,.58,2.07.87,3.1,0,.13.08.26.11.39.65-.14,1-.05,1.19.3s.09.66-.24,1.05c.6.26,1.19.52,1.79.76a1.18,1.18,0,0,1,.67.55,1.46,1.46,0,0,0,.82.7c1.68.64,2.12,1.31,2,3.12,0,1.09-.17,2.18-.27,3.27a4.21,4.21,0,0,1-.16.66c.21,0,.44-.22.61.07a1,1,0,0,1,.09.89c-.27.61-.59,1.2-.87,1.81a1.23,1.23,0,0,1-1.17.74H62c-.08.42-.14.83-.25,1.23a5.56,5.56,0,0,1-.35.88,1.16,1.16,0,0,1-.6.58H58.21a.74.74,0,0,1-.45-.55,13.81,13.81,0,0,1-.38-1.57c-.05-.27-.15-.32-.4-.32l-4.62.13a3.6,3.6,0,0,0-.7.18,4.27,4.27,0,0,1-1,.23c-1.4,0-2.79,0-4.18,0a4.35,4.35,0,0,1-1-.24,2.64,2.64,0,0,0-.55-.15L40,35h-.15c-.06.33-.11.67-.18,1s-.1.39-.16.58c-.18.51-.31.73-.62.83H36.32a1,1,0,0,1-.57-.6c-.23-.61-.36-1.26-.54-1.89,0-.05,0-.1,0-.18l-.62-.08a.94.94,0,0,1-.75-.52c-.35-.68-.7-1.36-1-2Z" transform="translate(4 -8)"/><path class="cls-18" d="M85.6,39.39H14.12a10.37,10.37,0,0,0,0,20.73H85.6a10.37,10.37,0,0,0,0-20.73M91.73,46a1.45,1.45,0,0,1-.9.37,1.05,1.05,0,0,0-.66.23.82.82,0,0,0-.25.59v5.18a3.13,3.13,0,0,1-1,2.35,3.45,3.45,0,0,1-2.44,1,1.29,1.29,0,0,1-.93-.34,1.29,1.29,0,0,1,0-1.79,1.29,1.29,0,0,1,.93-.35.84.84,0,0,0,.61-.24.76.76,0,0,0,.25-.58V47.23a3.1,3.1,0,0,1,1-2.35,3.37,3.37,0,0,1,2.43-1,1.29,1.29,0,0,1,.93.35,1.14,1.14,0,0,1,.37.89,1.19,1.19,0,0,1-.34.88M13.16,55.73A6.14,6.14,0,0,1,8.79,54a5.8,5.8,0,0,1,0-8.38,6.11,6.11,0,0,1,4.37-1.72,1.33,1.33,0,0,1,.93.34,1.18,1.18,0,0,1,.37.9,1.16,1.16,0,0,1-.37.9,1.29,1.29,0,0,1-.93.35,3.52,3.52,0,0,0-2.54,1,3.35,3.35,0,0,0,0,4.85,3.52,3.52,0,0,0,2.54,1,1.29,1.29,0,0,1,.93.35,1.19,1.19,0,0,1,.37.9,1.16,1.16,0,0,1-.37.9,1.29,1.29,0,0,1-.93.34m8-2.84a1.13,1.13,0,0,0,.8.32,1.36,1.36,0,0,1,1,.34,1.29,1.29,0,0,1,0,1.81,1.37,1.37,0,0,1-.94.34,3.72,3.72,0,0,1-2.68-1,3.45,3.45,0,0,1-1.08-2.59v-.88a1.18,1.18,0,0,1,.38-.87,1.26,1.26,0,0,1,.9-.37,1.83,1.83,0,0,0,1.32-.52,1.65,1.65,0,0,0,.55-1.26,1.61,1.61,0,0,0-.55-1.24,1.82,1.82,0,0,0-1.32-.52,1.79,1.79,0,0,0-1.31.52,1.64,1.64,0,0,0-.54,1.24v6.29a1.16,1.16,0,0,1-.37.9,1.41,1.41,0,0,1-1.85,0,1.2,1.2,0,0,1-.36-.89V48.18a4,4,0,0,1,1.28-3,4.42,4.42,0,0,1,3.15-1.23,4.47,4.47,0,0,1,3.17,1.23A4.16,4.16,0,0,1,23,50.76a4.49,4.49,0,0,1-2.23,1.5,1,1,0,0,0,.34.63m9.54-4.37a1.3,1.3,0,0,1,.93.34,1.16,1.16,0,0,1,.37.9,1.19,1.19,0,0,1-.37.9,1.29,1.29,0,0,1-.93.35H27.3a3.4,3.4,0,0,0,1.22,1.55,3.61,3.61,0,0,0,2.14.68,1.29,1.29,0,0,1,.93.35,1.19,1.19,0,0,1,.37.9,1.16,1.16,0,0,1-.37.9,1.29,1.29,0,0,1-.93.34A6.14,6.14,0,0,1,26.29,54a5.8,5.8,0,0,1,0-8.38,6.11,6.11,0,0,1,4.37-1.72,1.33,1.33,0,0,1,.93.34,1.18,1.18,0,0,1,.37.9,1.16,1.16,0,0,1-.37.9,1.29,1.29,0,0,1-.93.35,3.66,3.66,0,0,0-2.09.64,3.32,3.32,0,0,0-1.21,1.47Zm1.81,5.94v-9.3a1.17,1.17,0,0,1,.39-.87,1.28,1.28,0,0,1,.9-.37h2.5a6.18,6.18,0,0,1,4.38,1.7,5.82,5.82,0,0,1,0,8.38,6.14,6.14,0,0,1-4.38,1.7,1.33,1.33,0,0,1-.93-.34,1.13,1.13,0,0,1-.31-.54,1.17,1.17,0,0,1-.33.54,1.44,1.44,0,0,1-1.86,0,1.23,1.23,0,0,1-.36-.9m13.14,0a1.2,1.2,0,0,1-.37.9,1.37,1.37,0,0,1-.94.34,1.32,1.32,0,0,1-.92-.34,1.19,1.19,0,0,1-.36-.9v-9.3a1.18,1.18,0,0,1,.36-.89,1.28,1.28,0,0,1,.92-.35,1.33,1.33,0,0,1,.94.35,1.18,1.18,0,0,1,.37.89Zm39-4.63A5.61,5.61,0,0,1,82.83,54a6.44,6.44,0,0,1-8.74,0,5.8,5.8,0,0,1,0-8.38,6.41,6.41,0,0,1,8.74,0,5.61,5.61,0,0,1,1.8,4.19M65.12,46.41a1.29,1.29,0,0,1-.93-.35,1.28,1.28,0,0,1,0-1.8,1.33,1.33,0,0,1,.93-.34h5.3a1.35,1.35,0,0,1,.93.34,1.28,1.28,0,0,1,0,1.8,1.31,1.31,0,0,1-.93.35H69v8.05a1.19,1.19,0,0,1-.36.9,1.32,1.32,0,0,1-.92.34,1.37,1.37,0,0,1-.94-.34,1.2,1.2,0,0,1-.37-.9V46.41Zm-9.46-1.25a1.18,1.18,0,0,1,.36-.89,1.25,1.25,0,0,1,.92-.35,1.29,1.29,0,0,1,.93.35,1.14,1.14,0,0,1,.37.89v6.91a1.07,1.07,0,0,0,.35.81,1.18,1.18,0,0,0,.85.33,1.15,1.15,0,0,0,.84-.33,1.05,1.05,0,0,0,.34-.8V45.17a1.19,1.19,0,0,1,.37-.89,1.29,1.29,0,0,1,.93-.36,1.26,1.26,0,0,1,.93.36,1.22,1.22,0,0,1,.36.89v6.91a3.45,3.45,0,0,1-1.09,2.57,4,4,0,0,1-5.37,0,3.42,3.42,0,0,1-1.09-2.59Zm-.22,14a3.53,3.53,0,0,1-1.86-1,3.41,3.41,0,0,1-1.09-2.57V52.06a4.61,4.61,0,0,1-1.87.39,1.25,1.25,0,0,1-.92-.35,1.22,1.22,0,0,1-.36-.9,1.19,1.19,0,0,1,.36-.9,1.3,1.3,0,0,1,.92-.34,1.83,1.83,0,0,0,1.32-.52,1.68,1.68,0,0,0,.55-1.26,1.63,1.63,0,0,0-.55-1.25,1.82,1.82,0,0,0-1.32-.52,1.79,1.79,0,0,0-1.31.52,1.64,1.64,0,0,0-.54,1.24v6.29a1.16,1.16,0,0,1-.37.9,1.33,1.33,0,0,1-.93.34,1.29,1.29,0,0,1-.92-.34,1.19,1.19,0,0,1-.36-.9V48.18a4,4,0,0,1,1.28-3,4.42,4.42,0,0,1,3.15-1.23,4.47,4.47,0,0,1,3.17,1.23,4,4,0,0,1,1.29,3V55.6a1.08,1.08,0,0,0,.33.8,1.13,1.13,0,0,0,.84.33h.09a1.29,1.29,0,0,1,.93.35,1.25,1.25,0,0,1,.35.9,1.18,1.18,0,0,1-.81,1.16Z" transform="translate(4 -8)"/><g class="cls-19"><g class="cls-4"><g class="cls-4"><image width="1539" height="1206" transform="scale(0.07)" xlink:href="Sin%20t%C3%ADtulo-27.png"/></g></g></g><path class="cls-16" d="M49.87,89.41A39.19,39.19,0,0,0,85.94,65.6l.12-.28.31,0a15.12,15.12,0,0,0,0-30.2h-.31l-.12-.28a39.22,39.22,0,0,0-72.14,0l-.12.28h-.31a15.12,15.12,0,0,0,0,30.2l.31,0,.12.28A39.22,39.22,0,0,0,49.87,89.41m0-1A38.23,38.23,0,0,1,14.7,65.21l-.12-.28-.24-.57-.62,0-.3,0a14.14,14.14,0,0,1,0-28.24h.3l.62,0,.24-.57.12-.28a38.24,38.24,0,0,1,70.34,0l.12.28.25.57.61,0h.31a14.14,14.14,0,0,1,0,28.24l-.31,0-.61,0-.25.57-.12.28A38.23,38.23,0,0,1,49.87,88.43" transform="translate(4 -8)"/></g></g></g></g></svg>